<?xml version="1.0" encoding="utf-8" ?><svg xmlns="http://www.w3.org/2000/svg" xmlns:xlink="http://www.w3.org/1999/xlink" width="512" height="512" viewBox="0 0 512 512"><path d="M422.941 251.801C412.135 255.383 404.781 246.768 396.505 241.478C386.942 235.365 380.407 235.184 369.444 235.196L332.891 235.192C320.326 235.181 312.043 235.346 301.406 242.638C296.896 245.73 293.148 250.067 287.559 251.2C279.843 252.764 272.041 247.287 270.55 239.639C268.607 229.665 276.303 225.693 281.044 218.638C285.894 211.421 285.732 204.146 285.737 195.849L285.734 153.018C285.736 146.235 286.66 138.234 284.434 131.694C281.354 122.644 271.432 116.921 270.048 108.905C268.629 100.688 273.498 93.9069 281.616 92.5613C290.065 91.8035 295.1 97.7803 301.55 102.064C313.378 109.92 323.254 109.973 337.067 109.982L354.6 109.983C372.023 109.976 387.172 111.675 401.96 100.183C407.649 95.7629 413.289 90.7918 421.119 93.266C427.25 95.2031 431.363 100.736 431.434 107.116C431.513 114.265 426.028 117.984 422.027 123.021C414.147 132.944 414.496 141.381 414.499 153.122L414.493 193.483C414.474 205.902 414.274 214.834 423.926 224.485C426.487 227.045 429.494 229.437 431.054 232.788C434.77 240.766 430.434 248.369 422.941 251.801ZM282.865 101.758C274.293 105.173 282.248 112.253 285.908 116.343C295.337 126.88 295.202 137.763 295.205 151.18L295.216 191.711C295.212 205.08 295.329 217.546 285.781 228.279C283.371 230.988 278.21 234.612 280.066 238.83C283.305 246.194 290.693 238.662 293.862 236.197C305.857 226.871 317.18 225.764 331.463 225.765L368.246 225.776C386.813 225.751 393.984 227.451 409.067 238.657C412.553 241.247 416.159 245.26 420.718 242.411C425.237 237.926 421.302 235.392 418.039 231.835C404.784 217.387 405.203 210.094 405.215 191.478L405.208 149.998C405.17 136.684 405.968 126.675 415.685 115.934C417.972 113.405 420.886 111.112 422.173 107.881C421.095 94.4225 408.129 107.891 403.811 110.645C388.004 120.728 372.062 119.28 354.006 119.282L336.525 119.277C320.01 119.265 308.211 118.378 294.279 108.495C290.921 106.114 287.146 101.916 282.865 101.758Z"/><path d="M172.374 113.88C170.617 114.164 168.843 113.477 167.737 112.083C166.63 110.689 166.364 108.806 167.04 107.16C167.716 105.513 169.229 104.361 170.996 104.147C173.653 103.825 176.079 105.688 176.454 108.338C176.83 110.988 175.016 113.451 172.374 113.88Z"/><path d="M173.034 186.3C162.665 186.335 157.933 179.52 151.15 172.777C143.428 165.101 133.023 156.396 140.552 143.965C143.86 138.503 161.854 118.833 170.447 119.271C178.124 116.78 183.131 123.619 187.829 128.299C192.032 132.487 200.428 139.633 203.16 144.619C209.78 156.697 199.317 165.739 191.865 173.113C186.407 178.514 181.305 185.636 173.034 186.3ZM170.447 127.544C165.834 129.637 143.891 147.891 147.555 155.633C149.23 159.173 166.3 177.994 173.034 177.378C177.851 175.602 193.469 159.488 195.201 155.912C196.106 154.044 196.063 151.565 195.381 149.635C194.368 146.772 176.886 127.114 170.447 127.544Z"/><path d="M371.554 210.192C364.792 210.532 357.858 210.207 351.079 210.207C336.045 210.205 313.26 213.487 310.609 192.366C309.978 187.342 310.553 181.713 310.556 176.618L310.522 161.187C310.494 147.214 312.583 135.898 328.88 133.922L355.966 133.915C368.197 133.91 384.32 132.299 388.363 147.98C390.488 156.225 389.231 166.964 389.228 175.47C389.221 192.543 391.416 205.184 371.554 210.192ZM331.271 143.394C316.363 144.139 319.915 160.383 319.908 170.704C319.904 176.761 319.465 184.367 319.953 190.238C320.993 202.734 334.081 200.754 342.963 200.752L368.657 200.734C373.211 200.627 378.185 197.937 379.281 193.19C380.549 187.698 380.121 161.504 379.717 154.373C378.954 140.914 366.346 143.388 356.716 143.383L331.271 143.394Z"/><path d="M129.126 156.777C126.596 157.217 124.171 155.577 123.637 153.065C123.104 150.553 124.654 148.07 127.145 147.445C128.839 147.02 130.631 147.555 131.815 148.839C132.999 150.123 133.387 151.952 132.827 153.606C132.266 155.261 130.846 156.477 129.126 156.777Z"/><path d="M214.856 157.059C212.245 157.442 209.809 155.664 209.379 153.06C208.948 150.457 210.683 147.989 213.278 147.512C214.998 147.196 216.756 147.833 217.874 149.178C218.993 150.524 219.297 152.368 218.672 154.002C218.046 155.636 216.587 156.805 214.856 157.059Z"/><path d="M173.118 200.974C170.567 201.609 167.973 200.099 167.268 197.567C166.562 195.034 168.001 192.4 170.513 191.626C172.201 191.106 174.038 191.543 175.31 192.767C176.582 193.992 177.088 195.811 176.633 197.517C176.177 199.223 174.831 200.546 173.118 200.974Z"/><path d="M96.1078 291.059C97.7405 273.102 109.182 257.999 127.294 254.35C132.703 253.26 138.614 253.681 144.12 253.682L256.314 253.69C281.186 252.981 302.359 263.708 305.425 290.652C314.673 290.925 319.564 297.242 319.873 306.083C320.302 318.319 319.9 330.68 319.919 342.932L319.94 358.83C319.966 381.26 312.113 396.015 287.739 396.79C290.236 401.656 301.61 414.74 296.94 418.379C291.397 422.699 288.368 415.393 285.962 411.659C282.746 406.669 279.583 401.566 276.058 396.79L143.375 396.79L124.827 396.79C123.024 400.27 111.591 418.725 108.881 419.693C105.539 420.886 101.722 417.649 102.854 414.119C104.136 410.125 111.439 401.389 113.961 396.79C96.258 398.468 81.5777 385.477 80.7942 367.78C80.5869 363.097 80.7359 358.353 80.7396 353.664L80.7226 312.471C80.7022 300.046 81.821 291.583 96.1078 291.059ZM135.408 263.162C118.343 263.479 107.309 274.386 105.338 291.059C114.272 292.566 115.574 298.055 118.529 305.493L125.902 324.522C129.664 334.265 134.051 343.952 137.102 353.941L250.794 353.937C254.344 353.937 263.24 355.588 264.305 352.16C269.416 338.358 274.778 324.654 280.226 310.983C283.643 302.408 284.915 292.119 295.83 290.652C289.777 263.047 272.186 263.154 248.834 263.16L143.134 263.147C140.589 263.144 137.942 262.979 135.408 263.162ZM94.8689 299.775C87.8474 301.374 89.938 311.58 89.9374 317.589L89.9463 356.043C89.9579 379.222 91.9396 387.819 119.092 387.591L196.059 387.572L196.059 383.784L196.059 363.276L131.182 363.297C128.412 363.31 125.467 363.509 122.722 363.203C118.046 362.683 113.237 353.102 127.267 353.941C124.903 346.545 107.797 301.726 105.678 300.445C103.55 299.158 97.526 299.742 94.8689 299.775ZM297.048 299.775C291.836 301.742 287.44 318.814 285.243 324.396L277.603 343.956C276.307 347.277 274.825 350.558 273.709 353.941C286.85 352.977 282.85 362.699 278.366 363.2C275.725 363.494 272.883 363.298 270.22 363.297L205.484 363.276L205.484 387.572C207.284 387.545 209.101 387.471 210.899 387.572L281.609 387.579C285.577 387.577 290.139 387.794 294.023 386.985C313.841 382.855 310.546 363.157 310.553 348.249L310.557 307.867C310.479 298.036 305.548 299.746 297.048 299.775Z"/></svg>