<?xml version="1.0" encoding="utf-8" ?><svg xmlns="http://www.w3.org/2000/svg" xmlns:xlink="http://www.w3.org/1999/xlink" width="512" height="512" viewBox="0 0 512 512"><path d="M102.767 225.567C100.683 217.396 98.5116 209.629 97.9244 201.161C93.8306 142.122 138.065 93.9097 196.224 90.0062C233.059 88.9811 262.069 103.958 285.879 132.111C304.68 113.33 333.81 109.598 355.798 125.56C388.681 149.43 376.157 199.754 364.562 188.426C361.705 185.636 364.188 181.866 365.193 178.866C373.88 152.935 352.213 125.536 324.562 125.566C310.719 125.58 301.162 131.148 291.617 140.733C294.061 144.442 308.025 166.058 296.383 166.293C291.666 166.388 290.587 161.418 289.116 157.927C271.071 115.099 222.813 91.8664 177.955 103.132C125.35 116.344 96.2716 170.95 112.408 222.301C115.897 233.407 114.519 233.673 103.691 235.897C91.8396 238.331 82.1973 245.872 75.6668 255.85C61.4967 280.702 74.51 316.225 104.967 319.14C117.102 320.302 134.219 316.414 143.39 308.085C146.706 305.073 150.747 295.275 156.432 298.244C159.921 300.066 158.755 304.865 158.674 307.983C157.712 344.606 197.923 364.798 227.501 344.26C230.405 342.243 240.232 331.277 242.149 342.066C242.774 345.585 237.057 349.579 234.715 351.29C201.883 375.274 153.599 357.381 148.608 317.259C130.089 329.75 103.893 334.518 83.9908 322.574C44.2198 298.705 54.9808 236.94 102.767 225.567Z"/><path d="M179.054 188.29C181.774 179.536 189.829 165.146 200.149 163.574C212.627 162.148 217.99 176.227 223.255 184.933L237.892 208.95C251.744 193.604 269.2 183.568 289.794 180.668C363.096 170.346 412.379 255.961 369.161 312.465C373.44 317.092 378.118 321.654 382.837 325.833C396.909 328.122 396.261 331.297 406.016 341.363L429.814 366.09C438.613 375.327 451.449 384.049 451.609 397.966C451.883 421.873 425.739 429.569 407.875 411.484L376.226 380.519C365.955 370.453 356.347 365.772 357.522 350.444C352.451 345.997 347.994 340.894 342.926 336.428C299.229 361.918 241.536 342.71 222.992 295.131C221.534 291.392 220.542 287.585 219.563 283.702L198.299 283.708C194.622 283.714 190.89 283.938 187.223 283.702C178.164 274.057 192.027 273.783 198.251 273.783C204.567 273.783 210.899 273.955 217.212 273.801C217.571 251.717 217.758 238.273 231.202 218.237C225.282 207.053 213.682 186.815 206.093 176.524C197.809 165.29 192.031 190.689 185.979 192.885C182.608 194.108 180.094 191.088 179.054 188.29ZM296.964 189.997C234.211 192.432 202.442 273.948 251.555 318.876C273.315 338.781 306.453 343.371 332.871 330.531C336.47 328.67 339.989 325.728 343.862 324.608C348.068 326.335 359.949 338.81 363.597 342.785C367.088 339.017 370.657 334.764 374.788 331.705C372.324 329.974 361.362 319.172 359.25 316.579C354.365 310.58 365.035 302.183 368.503 294.303C389.226 247.205 357.566 194.59 307.17 190.116C303.788 189.816 300.344 189.514 296.964 189.997ZM385.009 336.428C381.801 338.106 371.348 348.244 368.876 351.287C364.143 357.113 370.382 360.996 374.274 364.882C380.274 370.874 386.424 376.709 392.515 382.607L411.256 400.628C415.095 404.285 419.359 410.013 424.684 411.484C437.263 413.871 446.594 400.297 439.818 391.186C437.499 388.068 434.592 385.307 431.9 382.512L395.979 345.266C393.105 342.336 388.959 336.105 385.009 336.428Z"/><path d="M202.466 231.707C200.395 231.874 197.602 231.246 196.82 229.022C195.79 226.092 195.733 199.623 196.881 197.26C197.516 195.954 198.865 195.482 200.149 195.04C202.472 194.908 204.647 195.219 205.756 197.591C206.68 199.565 206.712 227.049 205.838 228.958C205.156 230.451 203.927 231.129 202.466 231.707Z"/><path d="M171.647 283.702C166.53 284.187 147.245 284.107 143.265 283.231C134.791 281.368 129.834 272.568 131.9 264.267C133.346 258.455 147.367 237.857 151.767 230.703L164.634 209.797C166.794 206.327 169.065 200.668 172.687 198.517C176.217 198.141 180.556 200.783 179.2 204.854C177.998 208.465 172.381 216.498 170.187 220.065L147.66 256.559C145.578 259.928 136.763 270.243 144.564 273.252C149.995 275.347 164.159 272.297 170.97 274.149C176.036 275.527 175.887 281.56 171.647 283.702Z"/><path d="M306.885 322.383C274.57 325.646 245.724 302.106 242.441 269.794C239.158 237.481 262.681 208.62 294.992 205.318C327.33 202.013 356.22 225.56 359.506 257.9C362.791 290.24 339.227 319.117 306.885 322.383ZM296.637 215.323C269.776 217.718 249.949 241.446 252.366 268.305C254.783 295.164 278.528 314.971 305.385 312.531C332.21 310.094 351.988 286.384 349.573 259.557C347.159 232.73 323.466 212.932 296.637 215.323Z"/><path d="M302.958 244.604C296.125 245.271 293.883 231.748 301.313 229.535C307.954 229.796 308.058 242.211 302.958 244.604Z"/><path d="M201.426 252.243C193.953 250.585 194.33 242.211 201.426 240.806C208.583 241.919 208.134 250.913 201.426 252.243Z"/><path d="M296.964 291.677L296.425 291.436C290.966 288.933 278.521 284.426 282.559 277.042C285.27 272.083 294.822 254.602 300.047 253.05C307.622 252.973 310.463 261.315 313.935 266.765C326.977 287.241 322.403 280.682 306.957 291.677C306.468 295.054 306.456 297.257 302.958 298.729C297.729 299.032 296.735 296.413 296.964 291.677ZM301.313 265.404C298.691 269.873 295.996 274.281 293.192 278.639C296.005 279.912 298.629 281.396 301.313 282.915C304.213 281.689 307.006 280.236 309.719 278.639C307.141 274.128 304.253 269.689 301.313 265.404Z"/></svg>