<svg width="1024" height="1024" viewBox="0 0 1024 1024" fill="none" xmlns="http://www.w3.org/2000/svg">
<path d="M315.63 715.517C212.456 680.923 107.218 592.317 106.475 475.287C105.37 301.333 290.152 206.141 444.804 205.329C565.608 205.089 694.796 247.845 763.492 353.273C767.674 359.689 773.498 367.605 775.352 375.067C778.45 387.543 762.482 395.007 754.114 385.851C749.208 380.483 745.396 369.633 740.586 362.889C628.928 206.287 367.364 189.48 220.332 304.497C171.048 343.051 138.283 394.531 131.339 457.841C119.589 564.981 218.586 651.179 309.474 686.397C335.856 696.621 347.976 691.399 340.174 722.713C333.402 749.895 324.962 768.359 307.682 790.579C341.696 786.647 361.878 779.729 391.214 761.313C404.168 752.673 415.932 741.923 425.432 729.555C444.912 704.191 434.238 712.943 465.456 712.647C529.642 712.039 606.666 685.259 661.414 653.969C667.662 650.399 677.262 642.125 684.358 641.565C696.214 640.633 701.738 655.253 693.728 663.193C688.126 668.745 667.72 679.469 659.998 683.511C597.16 716.419 521.37 739.385 450.05 738.567C421.332 790.083 337.208 822.921 281.124 814.125C276.06 813.331 270.574 811.705 267.56 807.229C259.144 794.731 275.442 785.735 282.86 778.827C300.726 762.193 310.41 738.869 315.63 715.517Z" fill="black"/>
<path d="M314.082 405.629C304.678 412.001 283.592 428.579 274.508 432.481C263.768 437.095 254.338 424.075 259.432 414.245C262.468 408.387 317.146 372.475 324.134 370.059C345.496 366.571 340.51 395.259 340.514 408.093L340.518 521.515C340.516 530.113 343.084 557.727 337.7 564.321C331 572.527 316.65 569.479 314.692 559.003C313.464 552.429 314.064 545.005 314.062 538.313L314.082 502.249V405.629Z" fill="black"/>
<path d="M455.25 568.477C434.508 568.947 388.8 556.891 382.464 534.631C380.456 527.579 385.374 520.967 392.222 519.379C403.43 516.777 409.806 528.715 418.194 533.929C438.354 546.463 470.622 548.699 484.564 525.789C507.316 488.403 468.176 454.049 427.702 471.089C419.266 474.639 397.202 487.861 393.726 469.233C391.598 457.823 396.756 436.941 398.278 425.045L402.41 394.531C403.944 383.451 402.472 371.979 416.06 370.059C421.204 369.767 426.516 370.031 431.676 370.031H464.482C474.53 370.033 504.802 366.831 512.286 373.217C521.094 380.733 515.902 393.147 505.446 394.809C497.512 396.069 488.294 395.159 480.234 395.153L427.208 395.119C425.266 412.535 422.656 429.957 421.37 447.435C447.02 439.575 473.454 437.869 496.242 455.319C544.434 492.221 518.81 561.215 455.25 568.477Z" fill="black"/>
<path d="M770.958 654.443C730.914 654.835 698.804 627.291 698.464 586.335L698.482 517.621C698.434 485.997 693.658 453.977 718.016 429.573C738.258 409.293 763.792 410.763 790.18 410.767L832.144 410.795C894.064 410.051 917.204 436.739 917.134 499.615L917.156 573.369C917.196 609.235 908.512 643.355 866.48 651.927C846.034 656.097 847.068 657.087 831.554 670.219L804.394 692.913C797.788 698.409 791.736 704.847 783.056 706.605C763.976 702.157 770.3 670.875 770.958 654.443ZM803.276 435.231L780.348 435.211C732.632 435.277 723.548 450.671 723.514 495.945L723.508 569.121C723.524 594.815 724.268 622.683 757.602 628.615C790.786 634.521 798.266 620.503 794.886 666.647C798.84 663.991 802.488 661.035 806.038 657.861L824.888 642.835C844.18 627.259 836.676 632.265 859.282 628.203C888.214 623.003 892.626 598.719 892.646 574.931V502.469C892.638 492.463 893.332 481.747 891.406 471.911C882.812 428.009 835.326 435.331 803.276 435.231Z" fill="black"/>
<path d="M592.99 471.474C592.912 458.986 587.842 435.732 604.422 435.232C623.01 431.318 617.742 460.85 617.672 471.474C625.57 471.502 643.972 469.37 649.628 474.648C654.284 478.994 654.822 487.678 650.212 492.266C643.778 498.67 626.31 496.46 617.672 496.392C617.518 509.562 623.25 533.884 602.664 532.466C588.37 527.89 592.924 508.14 592.99 496.392C584.132 496.442 561.91 498.518 555.458 492.04C551.182 487.748 551.248 479.372 555.644 475.178C561.668 469.43 584.194 471.422 592.99 471.474Z" fill="black"/>
<path d="M794.886 517.908C794.992 500.84 788.2 474.588 806.038 467.588C826.734 470.286 819.656 501.876 819.612 517.908L846.806 517.798C856.564 517.736 874.944 515.602 875.318 530.152C875.722 545.816 858.102 543.17 847.752 543.136L819.612 543.09L819.69 570.232C819.712 579.156 821.716 587.588 813.806 593.54C794.46 602.026 794.764 581.268 794.802 569.208L794.886 543.09L770.404 543.154C763.344 543.164 752.918 544.594 747.358 539.102C740.184 532.014 744.978 520.422 754.092 518.408C761.67 516.732 785.824 517.876 794.886 517.908Z" fill="black"/>
</svg>
