<svg width="1024" height="1024" viewBox="0 0 1024 1024" fill="none" xmlns="http://www.w3.org/2000/svg">
<path d="M462.302 237.744C465.356 189.494 504.386 149.588 553.266 147.619C563.764 145.205 620.534 148.293 600.694 170.887C594.474 177.972 567.662 204.368 560.388 209.424C529.04 209.154 511.088 233.914 524.24 262.496C539.178 294.96 589.452 290.402 597.778 261.38C603.86 240.174 606.774 243.058 622.868 227.058C630.932 219.04 648.408 193.939 656.142 216.248C673.736 267.002 643.182 323.078 593.356 340.042C556.958 351.97 519.2 341.018 490.54 316.552C476.088 348.078 439.434 362.054 407.35 349.026C335.954 320.036 371.918 199.134 462.302 237.744ZM555.846 167.657C492.84 165.313 454.98 250.694 502.844 300.302C550.65 349.85 630.564 321.97 640.494 256.116C640.86 249.944 640.87 243.922 640.494 237.744L639.872 238.248C617.48 256.654 624.548 254.99 613.426 274.446C580.73 331.642 494.308 301.208 500.97 239.264C504.136 209.814 526.896 189.688 555.846 187.648C561.17 179.935 569.438 174.354 575.918 167.657C570.18 166.68 561.412 165.318 555.846 167.657ZM427.842 249.186C369.748 255.83 380.162 339.684 436.268 334.298C456.798 331.312 471.376 318.068 475.948 298.09C467.416 282.076 467.588 276.622 462.302 261.378C452.428 253.248 441.354 247.974 428.31 249.14L427.842 249.186Z" fill="black"/>
<path d="M515.532 445.554C521.546 441.27 527.254 436.444 533.146 431.978L575.666 399.574C582.91 393.968 600.292 378.55 607.692 376.07C616.35 376.592 648.848 404.09 657.89 410.794L701.012 442.884C707.464 447.664 732.72 461.598 728.074 471.73C720.608 488.012 700.328 466.646 692.588 460.886L636.092 418.86C626.932 412.134 617.868 404.252 607.692 399.164C600.766 405.556 592.966 411.136 585.498 416.882L544.21 448.218C536.63 453.952 514.85 472.588 507.23 475.334C499.216 478.222 476.634 473.504 472.378 478.7C469.484 482.234 472.712 529.97 471.248 539.756C470.082 547.552 462.026 552.45 455.834 546.464C449.006 539.862 451.992 514.334 451.958 505.208C451.806 463.26 449.392 456.946 498.046 457.078C492.96 453.422 488.108 449.416 483.06 445.7L431.778 408.236C427.656 405.104 423.514 402.07 419.228 399.164C395.148 418.234 366.444 439.612 341.45 457.078C384.242 458.006 381.44 466.376 381.494 508.332C381.504 515.902 386.43 558.348 367.646 548.646C359.242 544.304 362.074 526.736 362.136 519.258L362.214 492.49C362.258 478.438 363.742 476.318 348.436 476.384C341.12 476.416 294.824 481.682 304.22 462.306C307.048 456.472 316.768 451.536 321.792 447.748L396.556 391.744C428.068 368.198 420.65 376.234 452.94 399.51C473.868 414.596 495.468 429.346 515.532 445.554Z" fill="black"/>
<path d="M599.564 484.446C592.232 489.966 579.702 507.118 569.162 504.51C542.318 497.866 603.934 453.674 607.692 452.002C616.968 451.886 648.77 481.864 655.242 489.4C659.888 494.812 657.01 504.194 649.5 505.032C640.914 505.988 627.202 490.288 620.142 485.024L619.36 484.446L619.384 544.854C619.39 555.882 623.308 571.01 614.092 577.532C594.276 584.814 599.528 552.7 599.532 542.55L599.564 484.446Z" fill="black"/>
<path d="M640.494 631.019C678.568 603.771 736.438 545.699 767.094 508.883C784.596 487.865 788.69 482.543 816.788 476.439C834.446 481.427 842 478.483 857.472 493.853C874.724 510.989 877.784 541.423 864.704 561.937C859.482 570.127 848.97 580.261 842.194 587.927C791.646 645.111 732.73 694.071 680.466 749.639C612.756 821.629 586.228 818.511 488.99 818.513L381.538 818.505C374.144 823.181 367.982 829.973 361.774 836.093L337.248 860.597C318.972 878.883 319.796 874.205 294.742 874.205L192.243 874.215C159.228 874.213 148.96 883.227 149.473 849.623L149.404 674.003C149.329 661.555 145.505 647.363 162.479 646.383C170.426 645.923 235 645.241 240.32 646.755C247.692 648.851 252.664 661.405 256.12 667.641C267.092 651.551 281.9 631.933 293.966 616.655C340.236 558.071 430.584 556.541 487.558 602.025C510.634 601.435 533.886 601.999 556.978 602.001C586.254 602.003 629.13 594.875 640.494 631.019ZM815.288 497.655C794.538 500.859 786.81 516.119 774.31 531.179C746.956 564.133 709.82 598.267 677.986 626.587C667.424 635.983 655.17 644.077 645.19 654.001C634.372 696.533 611.046 695.733 574.124 695.691L478.764 695.709C472.152 695.727 465.14 696.357 458.59 695.675L458.082 695.215C450.942 688.673 450.794 677.573 462.372 676.413C470.63 675.585 483.83 676.549 492.63 676.515L570.952 676.525C580.552 676.525 598.686 677.927 607.298 674.711C633.402 664.963 634.49 621.957 591.018 621.515C565.706 621.255 506.702 625.057 484.21 621.073C477.242 619.837 461.756 606.133 453.29 601.911C407.47 579.057 346.126 588.835 311.136 626.935C297.332 642.325 278.286 669.381 266.38 686.517C292.856 730.503 318.24 781.797 346.05 823.795C381.492 794.077 359.364 799.043 409.196 799.123L498.348 799.127C580.854 799.145 605.032 801.635 665.394 736.897C693.172 707.107 722.758 679.659 752.322 651.687C782.556 623.081 810.082 593.529 837.818 562.691C840.856 559.311 844.346 556.177 847.046 552.521C864.472 528.935 843.742 494.997 815.288 497.655ZM168.74 665.495V854.703H315.534L322.904 847.835C325.838 844.867 328.904 841.959 331.672 838.837C325.96 827.913 319.53 817.367 313.446 806.647L271.03 732.881C258.176 710.639 246.432 686.525 231.758 665.495H168.74Z" fill="black"/>
<path d="M206.366 721.588C200.908 721.64 186.724 723.246 182.63 719.448C178.572 715.684 176.816 683.54 182.668 678.462C186.769 674.904 193.649 676.018 198.568 676.504C203.856 675.95 217.95 674.234 222.42 677.284C228.29 681.288 226.25 715.79 223.324 718.986C219.934 722.686 211 721.626 206.366 721.588ZM198.568 695.676V702.696H206.366C206.368 700.36 206.424 698.01 206.366 695.676H198.568Z" fill="black"/>
</svg>
