<?xml version="1.0" encoding="utf-8" ?><svg xmlns="http://www.w3.org/2000/svg" xmlns:xlink="http://www.w3.org/1999/xlink" width="512" height="512" viewBox="0 0 512 512"><path d="M287.213 164.927C287.201 155.814 283.53 132.362 291.589 128.753C296.034 128.495 316.825 142.496 322.051 145.591L346.254 160.008C364.872 171.229 364.6 171.851 348.136 181.859L305.291 208.21C301.403 210.605 289.199 220.191 287.34 210.243C286.709 206.869 287.192 202.883 287.197 199.437L287.213 176.035C270.407 172.777 251.847 171.552 238.671 184.839C219.432 204.241 231.789 216.548 231.791 234.548C231.794 256.82 214.928 275.68 193.82 281.097C184.239 283.555 170.783 282.623 160.711 282.621L119.941 282.613L104.006 282.625C79.38 282.617 59.3899 274.217 50.495 248.619C46.8783 238.21 46.661 191.815 48.508 179.094C51.21 160.484 65.6642 145.091 83.2345 139.242C92.9918 135.993 103.844 136.855 113.967 136.856L169.662 136.851C175.88 136.852 182.222 136.687 188.41 137.375C211.93 139.99 224.5 156.078 231.421 176.805C245.767 161.635 268.034 161.68 287.213 164.927ZM298.265 144.054L298.265 199.001C307.752 193.506 317.835 187.718 326.896 181.595C332.663 178.909 338.192 174.877 343.596 171.507C330.534 163.183 312.005 150.88 298.265 144.054ZM155.754 147.669L115.792 147.671C108.067 147.671 97.4053 146.889 90.0922 148.603C75.8184 151.949 64.012 162.934 60.1587 177.151C57.8175 185.789 58.6725 195.497 58.6775 204.399L58.6782 230.292C58.7623 261.445 80.0397 271.989 108.1 271.985L128.375 271.971L162.389 271.979C171.393 271.978 182.471 272.871 191.12 270.532C207.067 266.221 221.165 251.695 221.201 234.555C221.228 221.391 212.692 216.193 219.178 196.855C220.944 191.593 221.861 189.649 221.201 184C218.023 156.802 198.428 147.651 173.343 147.66L155.754 147.669Z"/><path d="M126.591 242.551C119.726 247.811 112.413 246.828 104.219 246.927C88.4758 247.117 88.5454 247.225 88.5311 232.734L88.5299 197.951C88.5333 191.704 86.5593 182.366 95.2166 181.595C107.547 181.557 127.137 179.379 130.506 195.327C131.925 202.045 130.286 207.142 126.591 212.723C136.169 220.936 135.388 234.237 126.591 242.551ZM99.3198 192.02L99.3198 208.875C104.916 208.899 113.481 210.611 118.148 206.819C119.945 204.732 120.789 202.59 120.564 199.812C119.755 189.836 106.206 191.974 99.3198 192.02ZM99.3198 218.926L99.3198 236.523C105.978 236.557 114.235 238.152 119.941 233.95C124.407 229.256 123.753 220.638 116.474 219.212C112.039 218.343 104.073 218.906 99.3198 218.926Z"/><path d="M183.894 242.551C176.422 248.381 158.984 248.03 150.496 246.846C143.781 245.909 145.25 239.122 145.245 234.115L145.243 200.751C145.249 194.51 143.143 182.562 151.693 181.595C157.883 181.582 170.461 180.803 175.759 182.67C185.112 185.967 189.87 196.828 186.656 206.118C185.879 208.366 184.7 210.463 183.894 212.723C193.2 220.56 192.058 234.466 183.894 242.551ZM155.754 192.02L155.754 208.875C161.371 208.9 169.728 210.708 174.367 206.819C177.305 203.429 178.049 197.167 174.267 194.057C170.59 191.033 160.625 191.999 155.754 192.02ZM166.748 218.926L155.754 218.926L155.754 236.523L169.54 236.523C179.308 236.342 183.957 226.648 177.817 220.987C174.85 218.252 170.469 218.832 166.748 218.926Z"/><path d="M226.04 332.971C241.313 337.196 260.847 338.217 272.542 325.612C287.762 309.21 281.334 300.392 280.762 283.504C279.797 254.98 303.475 235.299 330.938 234.621L405.097 234.607C431.224 234.603 454.019 243.595 462.089 271.466C465.168 282.101 465.451 324.967 463.446 336.743C460.308 355.171 445.793 371.349 427.75 376.341C418.396 378.929 404.456 377.971 394.458 377.967L337.249 377.977C305.984 378.07 288.077 366.441 279.371 334.867C269.246 343.079 260.702 346.282 247.562 346.505C240.275 347.139 233.101 346.016 226.04 344.289L226.044 366.84C226.058 373.53 228.557 380.183 220.58 382.399C215.067 380.995 209.711 376.473 204.972 373.481L165.042 348.564C161.371 346.291 148.381 340.679 153.458 334.751C155.728 332.1 165.355 327.202 168.842 325.094L204.615 302.829C207.888 300.776 216.135 294.515 219.973 294.41C228.074 294.189 226.057 305.104 226.057 310.177L226.04 332.971ZM391.436 245.682L349.133 245.685C340.924 245.684 329.52 244.895 321.77 246.661C305.301 250.413 291.574 264.467 291.611 282.017C291.637 294.061 296.499 300.854 291.924 313.504C286.801 327.666 291.333 344.883 301.973 355.378C312.474 365.736 321.135 367.084 335.22 367.054L350.375 367.038L407.771 367.05C421.346 367.073 431.611 366.052 441.827 355.858C454.705 343.006 453.369 329.524 453.356 312.923L453.369 287.276C453.288 266.139 437.713 247.754 416.395 245.78C412.941 245.461 409.357 245.645 405.888 245.662L391.436 245.682ZM214.794 309.736C207.642 313.295 199.882 318.942 192.945 323.238L177.786 332.5C174.994 334.243 172.073 335.921 169.54 338.031C174.865 342.386 181.365 345.849 187.29 349.37L203.128 359.327C207.079 361.798 211.143 364.128 214.794 367.038C215.071 361.658 214.797 356.199 214.791 350.807L214.781 318.809C214.781 317.309 215.336 310.627 214.858 309.746L214.794 309.736Z"/><path d="M335.438 296.341C323.649 293.441 332.732 276.757 348.24 275.351C358.323 274.582 368.621 281.069 370.034 291.549C371.954 305.788 355.271 320.14 346.602 331.583L358.929 331.544C363.069 331.534 371.222 330.578 371.173 336.865C371.117 344.166 361.591 342.497 356.88 342.493L337.758 342.472C322.977 341.719 333.538 329.774 338.34 324.239L350.08 310.569C352.415 307.829 354.945 305.128 356.974 302.157C363.631 292.414 356.521 283.672 345.829 286.576C340.169 288.114 342.291 294.591 335.438 296.341Z"/><path d="M420.334 338.031C413.476 342.941 406.974 342.404 399.041 342.457C377.297 342.604 381.864 340.101 381.875 319.802L381.88 297.928C381.884 289.131 379.394 279.136 389.447 276.167C402.657 275.794 422.134 273.87 423.816 291.433C424.442 297.978 422.851 302.357 418.739 307.376C430.107 314.477 428.518 328.789 420.334 338.031ZM392.417 286.51C392.292 292.077 392.366 297.669 392.417 303.238C398.221 303.274 406.604 304.417 411.308 300.786C414.412 297.544 414.797 291.985 411.315 288.803C407.687 285.486 397.401 286.494 392.417 286.51ZM392.417 313.316L392.417 331.583C398.472 331.589 409.358 333.189 413.862 329.536C417.201 325.656 417.476 319.086 413.262 315.64C409.115 312.248 397.873 313.291 392.417 313.316Z"/></svg>