<svg width="1024" height="1024" viewBox="0 0 1024 1024" fill="none" xmlns="http://www.w3.org/2000/svg">
<path d="M516.752 373.833C462.368 376.479 416.154 334.501 413.576 280.115C410.996 225.729 453.032 179.566 507.422 177.056C561.716 174.55 607.778 216.495 610.352 270.785C612.926 325.075 571.038 371.189 516.752 373.833ZM506.46 196.63C462.854 199.649 429.94 237.427 432.92 281.035C435.898 324.643 473.644 357.593 517.256 354.655C560.924 351.711 593.926 313.905 590.944 270.239C587.96 226.573 550.124 193.606 506.46 196.63Z" fill="black"/>
<path d="M276.9 327.251C276.906 334.809 284.504 409.115 261.688 392.217C254.646 387.003 257.782 361.409 257.782 353.515C257.784 315.019 249.864 268.411 303.348 262.547C319.546 261.787 363.656 260.709 378.958 263.009C386.336 264.119 393.224 272.187 386.346 278.771C380.818 284.061 368.79 281.587 361.95 281.541L322.958 281.529C283.29 281.627 276.716 288.785 276.9 327.251Z" fill="black"/>
<path d="M745.65 365.559C745.892 353.827 745.634 342.049 745.67 330.313C745.822 280.427 737.28 281.463 693.978 281.577L659.14 281.643C653.736 281.677 646.578 282.523 641.462 280.611C631.89 277.035 634.044 265.569 642.532 262.547C657.422 261.979 672.418 262.553 687.32 262.531C746.596 262.445 765.402 266.795 765.406 331.045L765.378 365.559C774.748 357.295 785.832 342.445 795.49 336.045C802.364 331.491 811.666 340.109 809.394 347.613C807.442 354.065 763.986 395.445 759.102 398.265C755.366 398.833 753.01 398.181 750.002 395.707C739.672 387.215 711.856 362.193 703.676 351.677C697.438 343.661 706.928 331.579 715.71 337.279C724.266 342.833 737.71 357.899 745.65 365.559Z" fill="black"/>
<path d="M714.064 626.091C707.034 619.449 698.988 615.585 691.724 607.919C664.996 579.709 667.494 545.517 668.802 509.263C670.234 469.499 705.982 428.429 747.71 430.205C755.738 427.137 768.222 429.883 776.19 431.911C807.038 439.767 832.598 466.829 838.3 498.219C840.812 512.059 840.742 559.353 837.218 572.487C830.094 599.039 814.474 612.835 791.564 626.091C860.256 635.335 908.306 692.099 908.51 761.341C908.728 834.621 894.476 846.911 822.206 846.917L767.25 846.891L696.402 846.917C657.898 846.919 609.624 849.823 602.968 797.141C594.248 728.119 620.244 661.991 688.572 634.257C696.858 630.895 705.868 629.689 714.064 626.091ZM751.294 449.199C717.936 449.807 688.442 477.483 688.482 511.435C716.74 517.895 742.766 507.531 765.378 491.457C781.39 473.333 782.056 467.441 797.648 487.657C803.784 495.615 811.498 500.031 820.472 504.081C812.172 476.201 783.006 441.771 751.294 449.199ZM782.412 501.855C747.134 535.115 727.906 529.073 688.482 533.479C688.376 569.413 693.52 596.979 730.992 610.231C765.728 620.469 807.394 606.669 818.026 569.157C821.872 555.595 820.516 540.003 820.472 526.001C801.214 519.005 796.624 511.279 782.412 501.855ZM728.466 630.773C732.07 639.031 736.552 646.969 740.022 655.249C749.09 655.245 758.186 655.087 767.25 655.249C768.13 651.863 769.448 649.467 771.542 646.695C772.648 641.139 775.18 636.095 777.026 630.773C754.7 635.027 747.354 630.591 728.466 630.773ZM791.564 646.695C788.144 653.811 784.408 660.749 782.412 668.425C783.576 677.687 792.876 702.819 791.766 709.253C790.664 715.645 773.396 734.133 768.95 739.789C764.67 745.229 756.102 761.777 747.168 753.847C742.608 749.799 719.326 713.521 716.432 706.885C718.684 693.939 723.56 681.461 725.358 668.425C721.36 661.299 717.724 653.997 714.064 646.695C646.756 665.183 621.564 709.331 621.468 775.647C621.43 802.215 627.618 827.483 661.034 827.481L660.994 789.475C660.974 783.267 660.586 776.835 661.034 770.649C664.02 761.747 674.762 758.573 679.068 768.471C681.5 774.057 680.146 817.559 680.154 827.481H829.964L829.91 791.301C829.904 785.119 829.298 778.245 830.308 772.167C831.914 762.487 847.264 762.927 848.818 772.091C849.932 778.657 849.134 786.255 849.08 792.949L849.034 827.481C885.576 826.323 889.134 805.249 889.126 773.683C889.118 732.663 886.074 705.031 852.442 674.803C837.038 660.957 812.638 647.377 791.564 646.695ZM743.674 674.343C741.654 683.655 740.068 693.653 736.518 702.499C740.962 712.049 747.55 720.631 752.926 729.687L757.43 723.591C762.208 717.423 767.196 711.321 771.542 704.837C769.314 694.529 765.76 684.607 763.406 674.343H743.674Z" fill="black"/>
<path d="M276.9 846.892L205.126 846.884C171.691 846.946 135.789 850.864 120.067 811.542C110.024 786.424 116.402 728.998 126.614 705.45C140.918 672.462 168.073 647.83 201.382 634.818C232.604 622.62 239.474 632.686 212.27 610.64C185.827 589.21 185.071 561.332 185.064 531.076C185.051 480.108 204.104 435.434 262.34 430.206C290.68 427.858 319.33 439.57 337.15 461.948C354.476 483.706 356.324 506.416 356.39 533.002C356.468 564.774 353.924 589.134 327.464 611.824C307.772 628.708 301.064 622.93 329.212 632.158C386.616 650.978 421.264 704.578 421.544 764.376C421.872 834.482 408.934 846.932 339.182 846.87L276.9 846.892ZM265.842 449.2C231.986 452.446 204.856 478.95 204.59 513.504C243.34 514.186 251.39 509.408 281.544 491.458C293.2 475.664 295.708 464.164 308.722 483.5C314.932 492.726 324.722 500.656 335.346 504.082C328.962 470.33 300.43 446.85 265.842 449.2ZM298.268 501.856C267.108 526.614 246.148 534.09 204.59 533.48C204.536 570.792 211.716 596.27 248.892 610.232C284.236 620.72 323.386 604.132 334.162 567.324C338.012 554.178 336.996 539.588 336.952 526.002C313.32 517.062 313.518 511.264 298.268 501.856ZM246.912 630.774C247.774 638.918 253.712 648.138 257.754 655.25H283.586C285.086 652.354 286.582 649.484 288.274 646.696C291.292 641.354 293.644 636.844 294.712 630.774C272.69 633.096 266.676 631.056 246.912 630.774ZM229.346 646.696C161.783 661.72 134.582 708.628 134.582 773.928C134.582 801.804 137.407 824.664 173.026 827.482L172.974 790.7C172.967 785.042 172.317 778.574 173.242 773.032C174.566 765.104 184.555 761.724 189.998 768.254C194.846 774.068 192.889 786.638 192.889 793.614L192.853 827.482H343.182L343.134 791.578C343.128 785.742 342.522 779.266 343.408 773.53C345.142 762.318 363.014 762.95 362.852 777.876V827.482C398.968 830.172 402.124 802.422 402.09 774.53C402.014 710.806 374.852 661.35 309.926 646.696C306.132 653.97 301.88 661.076 298.268 668.426C310.564 709.138 313.436 698.294 291.19 732.902C285.974 741.016 274.064 767.898 262 752.064C257.818 746.576 234.54 709.266 233.502 704.99C232.04 698.96 241.034 675.746 243.064 668.426C241.036 664.672 233.556 648.784 230.694 646.736L229.346 646.696ZM267.696 674.344H262.34C258.548 683.508 255.75 692.998 252.946 702.5C258.988 711.65 264.72 720.822 270.14 730.35L270.846 730.356L271.526 729.688C275.88 720.266 281.908 710.712 288.274 702.5C285.112 693.538 281.93 683.876 281.544 674.344C276.898 674.17 272.344 674.082 267.696 674.344Z" fill="black"/>
<path d="M497.77 805.504C502.954 810.47 519.602 823.792 522.366 828.79C526.068 835.49 518.596 845.716 511.1 842.782C507.082 841.208 461.268 796.876 459.792 793.338C455.826 783.83 477.834 768.244 483.724 762.508C491.838 754.604 500.37 742.264 511.17 738.012C514.23 737.904 517.372 738.384 519.742 740.506C531.186 750.746 501.514 770.958 493.734 779.692L493.126 780.38C514.016 780.65 551.426 777.846 570.644 780.612C581.328 782.15 581.038 797.168 570.518 799.108C562.916 800.51 553.712 799.538 545.966 799.532L493.126 799.492C494.588 801.588 496 803.648 497.77 805.504Z" fill="black"/>
</svg>
