<?xml version="1.0" encoding="utf-8" ?><svg xmlns="http://www.w3.org/2000/svg" xmlns:xlink="http://www.w3.org/1999/xlink" width="512" height="512" viewBox="0 0 512 512"><path d="M290.629 248.594C246.344 250.829 208.595 216.822 206.21 172.545C203.825 128.268 237.704 90.4034 281.973 87.869C326.454 85.3224 364.54 119.399 366.936 163.889C369.332 208.378 335.126 246.349 290.629 248.594ZM285.874 98.5304C247.351 98.9009 216.435 130.454 216.85 168.976C217.265 207.499 248.854 238.378 287.376 237.918C325.835 237.459 356.653 205.934 356.238 167.474C355.824 129.015 324.334 98.1606 285.874 98.5304Z"/><path d="M281.457 128.34C281.837 123.44 280.321 118.327 285.564 115.775C293.349 115.05 292.171 123.001 291.783 128.34C296.91 128.471 309.803 125.722 310.315 133.479C310.877 142.002 288.294 138.696 281.687 139.139C272.799 139.735 268.204 150.61 273.971 157.509C279.307 163.892 288.025 160.796 295.136 162.036C319.562 166.297 319.108 203.228 291.783 205.286C291.778 210.685 293.897 220.807 285.564 220.364C279.592 217.713 281.425 210.741 281.457 205.286C278.238 205.273 253.38 207.606 261.303 196.848C264.247 192.852 286.882 195.209 292.991 194.389C301.58 193.236 305.218 182.619 299.573 176.087C293.049 168.538 279.699 175.799 269.082 167.75C253.49 155.928 259.776 131.07 281.457 128.34Z"/><path d="M401.198 196.863C397.312 200.817 387.307 211.405 383.3 213.908C379.007 216.589 373.846 212.392 375.483 207.738C376.311 205.381 400.359 181.492 404.983 179.281C411.188 178.466 419.899 190.078 424.34 194.484C428.182 198.295 433.298 202.652 436.467 206.837C439.002 210.185 435.963 214.982 431.96 215.085C427.562 215.198 415.963 201.33 411.973 197.761L411.993 277.387C412.027 282.838 414.243 292.777 406.858 293.921C399.252 293.385 401.197 283.89 401.195 278.573L401.198 196.863Z"/><path d="M332.312 275.162L332.324 299.748C332.325 303.688 333.466 312.765 331.361 316.155C329.042 319.89 322.407 318.946 321.655 314.527C320.792 309.455 321.05 271.432 322.114 270.082C326.317 264.749 345.533 245.962 349.582 243.762C354.747 243.291 360.162 251.303 363.489 254.677L379.314 270.433C386.039 277.183 384.138 284.501 374.749 284.024C374.724 288.282 375.414 299.818 374.375 303.189C372.942 307.836 365.876 308.467 363.992 303.805C363.123 301.659 363.034 279.692 363.967 277.667C364.693 276.09 366.602 275.665 368.097 275.162C366.539 273.156 352.054 258.057 350.509 257.395L349.582 258.192C343.725 263.742 338.079 269.519 332.312 275.162Z"/><path d="M156.458 389.407C153.942 405.831 141.016 405.567 128.525 405.545L110.766 405.552C105.375 405.555 93.7862 406.143 89.0223 405.122C70.7791 401.209 74.7427 379.069 74.753 365.277L74.7452 300.209C74.6947 281.47 76.8882 271.718 98.2486 270.812L123.271 270.801C139.741 270.799 146.648 268.613 156.458 284.024C187.024 268.515 217.805 267.848 241.717 295.634C244.086 298.388 245.888 301.512 248.183 304.296L248.351 304.496C253.349 306.581 259.007 307.895 264.187 309.561L294.407 319.604C307.539 324.054 315.804 325.59 318.122 341.338C337.214 335.134 357.555 327.485 376.248 320.187L397.03 312.266C405.114 309.172 412.361 305.509 421.258 307.593C432.324 310.184 439.002 321.772 436.272 332.684C433.597 343.372 423.633 347.226 415.092 352.651C406.108 358.357 397.195 364.148 388.096 369.67C375.289 377.596 362.608 385.795 349.976 393.996C318.915 414.164 292.026 431.155 253.378 418.988C246.84 416.93 240.577 414.163 234.244 411.564L199.255 396.911C182.174 389.8 174.665 385.98 156.458 389.407ZM102.838 281.607C85.3745 281.573 85.6575 283.649 85.7091 299.881L85.728 363.427C85.7221 370.986 85.5506 378.582 85.7261 386.138C85.9973 397.816 96.5618 394.831 105.108 394.829L129.359 394.817C141.831 394.93 145.914 395.681 145.968 381.834L145.978 300.291C145.981 281.923 145.97 281.586 126.163 281.589L102.838 281.607ZM193.921 284.024C176.51 284.401 170.458 291.209 156.458 295.59L156.458 378.747C191.147 370.801 236.61 408.577 272.966 412.036C301.401 414.741 322.604 398.592 345.171 383.973L407.352 344.236C411.359 341.667 422.186 336.252 424.56 332.351C429.834 323.685 420.434 315.643 411.973 318.515C383.314 328.022 354.153 340.433 325.282 350.526C320.217 352.297 316.124 353.409 311.932 356.805C300.777 365.842 288.16 359.351 275.174 356.676C261.006 353.758 246.568 351.52 232.087 351.128C229.468 351.057 219.019 351.832 217.553 351.032C214.924 349.598 213.989 345.65 215.593 343.162C220.435 335.65 272.902 345.135 280.727 346.815C286.15 347.98 295.322 350.953 300.568 350.868C308.399 350.74 310.225 339.162 303.527 334.678C299.322 331.862 293.542 330.623 288.748 329.041L255.888 318.186C236.608 311.8 245.171 316.868 233.187 302.399C224.933 292.433 207.568 282.238 193.921 284.024Z"/><path d="M100.72 373.406C101.255 370.987 102.164 369.365 104.468 368.167C108.681 368.131 120.933 367.528 124.238 368.567C129.707 370.286 128.844 376.645 124.312 378.747C116.696 379.43 102.794 381.752 100.72 373.406Z"/></svg>