<svg width="1024" height="1024" viewBox="0 0 1024 1024" fill="none" xmlns="http://www.w3.org/2000/svg">
<path d="M488.644 297.686C440.356 334.9 413.85 387.7 417.026 449.158C417.426 456.912 420.704 467.502 420.36 474.456C419.834 485.072 400.94 495.428 396.686 464.75C386.46 391.036 419.208 322.924 477.224 278.91C493.32 266.7 501.068 266.024 520.49 260.34L614.836 232.24C623.376 229.632 632.114 226.348 640.964 225.132C650.15 225.214 667.804 232.99 677.368 235.882L746.894 257.052C793.606 271.48 792.154 260.382 792.142 304.786L792.132 442.222C792.134 456.208 792.718 470.396 792.218 484.352C791.71 498.478 770.334 500.254 758.556 503.75L669.176 531.38C660.682 534.04 652.262 537.116 643.63 539.286C634.784 541.512 566.786 517.992 553.922 514.158L516.81 503.138C482.384 492.944 488.602 494.778 488.618 460.64L488.644 408.75V297.686ZM640.964 248.142C631.388 250.366 621.952 253.478 612.506 256.214L559.144 271.718C550.466 274.218 541.81 277.318 532.952 279.084C541.384 281.668 549.978 283.75 558.466 286.148L636.372 307.744C642.85 310.204 656.954 303.952 663.61 302.078L716.282 286.754C724.814 284.21 733.286 281.082 741.96 279.084C710.72 266.636 673.386 258.42 640.964 248.142ZM770.512 293.58C735.072 302.82 685.374 316.286 651.626 328.91L651.572 497.46C651.54 502.426 650.81 508.59 651.626 513.412C664.306 510.772 676.664 505.57 689.018 501.676C715.658 493.278 743.67 484.362 770.512 476.64L770.5 319.43C770.498 315.304 772.156 295.618 770.512 293.58ZM510.578 297.686V478.234C522.856 481.344 534.848 485.428 546.956 489.122L611.998 508.568C616.046 509.742 626.22 513.658 629.772 513.412V328.91C600.862 322.052 572.402 312.558 543.662 304.922C532.958 302.078 521.684 297.816 510.578 297.686Z" fill="black"/>
<path d="M600.348 363.006C591.84 364.118 578.544 357.974 570.25 355.612C561.594 353.148 535.502 349.072 531.632 339.994C528.704 333.128 533.522 327.712 539.54 325.04C546.822 324.512 591.942 338.16 600.74 341.28C612.68 345.514 610.924 358.892 600.348 363.006Z" fill="black"/>
<path d="M679.502 483.724C670.958 483.126 664.11 474.112 670.05 466.23C674.014 460.97 731.656 444.232 741.96 442.606C750.934 442.522 755.13 454.45 749.606 461.034C745.318 466.146 686.732 482.98 679.502 483.724Z" fill="black"/>
<path d="M270.672 703.176C271.332 723.354 264.422 739.568 242.27 741.186C227.964 742.23 172.682 742.79 161.402 740.248C130.556 733.298 138.662 689.178 138.682 664.568L138.662 527.854C138.665 501.278 136.139 475.698 170.991 473.742C189.468 472.25 217.198 473.372 235.954 473.804C263.218 474.434 271.274 488.868 270.672 514.49L366.162 514.474C427.028 514.478 427.43 510.982 481.718 543.342L513.484 562.038C536.304 575.764 530.396 575.652 556.588 575.574L601.664 575.592C637.164 575.592 660.014 576.354 669.29 615.998C685.99 609.268 702.104 600.208 718.19 592.088L796.124 553.102C808.474 546.956 821.354 538.638 834.354 534.286C873.038 521.334 903.132 569.314 876.416 599.32C860.292 617.428 798.136 659.326 777.228 673.78C737.746 703.094 696.932 731.516 654.022 755.61C523.5 828.894 465.68 796.218 347.008 721.652C314.762 701.392 309.75 703.012 270.672 703.176ZM170.991 495.548C164.149 496.496 160.821 498.042 160.531 505.37C159.922 520.72 160.478 536.324 160.479 551.708L160.464 690.02C160.461 696.16 157.578 714.492 164.091 718.062C169.111 720.814 229.064 719.45 240.126 719.446C246.346 718.896 248.386 717.582 248.754 711.064C249.564 696.744 248.994 682.13 248.99 667.786L248.994 529.41C249.002 519.992 249.796 510.07 248.982 500.724C247.64 498.91 246.348 497.16 244.758 495.548C220.218 496.406 195.544 494.848 170.991 495.548ZM270.672 536.104C270.178 584.552 270.674 633.054 270.672 681.508C313.052 681.424 320.848 679.39 358.852 703.2L386.58 720.434C519.366 803.734 570.276 785.72 701.156 699.516C739.222 674.444 775.704 647.002 812.546 620.188L844.164 597.264C852.948 590.85 864.766 584.93 864.668 572.412C864.56 558.652 851.38 550.956 839.318 556.022C819.462 564.358 794.62 579.01 774.788 589.012C761.278 595.888 671.15 637.656 664.098 643.89C650.094 656.27 649.278 664.208 627.918 665.936C604.014 667.872 552.228 667.722 529.55 665.04C511.212 662.872 450.598 645.304 443.668 631.88C437.974 620.85 450.36 614.188 459.636 618.132C524.092 645.53 528.23 644.078 594.972 644.422C610.72 644.504 636.906 649.402 644.734 630.996C649.744 619.214 644.886 604.062 632.338 599.498C622.164 595.798 609.53 597.558 598.934 597.572L551.58 597.654C525.352 597.708 527.578 596.732 504.69 582.976L464.506 559.24C433.356 540.792 427.794 535.808 392.446 536.058L270.672 536.104Z" fill="black"/>
</svg>
