<svg width="1024" height="1024" viewBox="0 0 1024 1024" fill="none" xmlns="http://www.w3.org/2000/svg">
<path d="M474.502 185.144C488.824 185.41 490.082 199.677 481.844 203.04C476.058 205.4 454.838 205.76 449.328 203.19C433.192 195.662 466.438 161.181 473.302 151.646L493.102 123.761C498.298 116.505 502.524 107.542 511.674 105.083C520.28 105.986 524.944 115.845 529.526 122.173L568.132 175.673C571.93 180.845 576.128 185.883 579.434 191.379C579.616 193.711 579.5 196.037 579.434 198.373C573.104 207.388 547.96 206.786 540.764 201.802C532.392 196.004 537.908 186.195 549.084 185.144C544.576 177.403 539.088 170.475 533.868 163.226L512.672 133.297L511.674 133.306C501.016 145.9 482.966 171.348 474.502 185.144Z" fill="black"/>
<path d="M514.788 301.44C509.782 301.754 504.116 299.948 502.412 294.656C500.76 289.526 500.952 207.036 501.732 196.946C502.142 191.653 505.088 188.604 510.132 187.07C519.778 187.15 521.692 192.75 522.172 200.938C522.806 211.716 523.314 288.984 521.466 294.596C520.264 298.244 518.174 299.848 514.788 301.44Z" fill="black"/>
<path d="M723.634 248.766C729.322 260.26 721.632 273.392 710.246 265.56C699.962 258.484 678.094 237.138 701.516 231.548C727.792 225.276 768.892 219.33 795.584 216.196C801.176 215.916 803.68 218.654 806.456 223.326C806.91 231.656 804.616 240.072 803.22 248.232L795.92 288.918C794.15 298.584 793.304 333.814 779.096 331.442C760.694 328.372 737.652 289.42 773.782 299.57C774.48 284.826 778.866 265.226 781.624 250.358L783.816 239.704C768.736 239.674 739.658 245.68 723.634 248.766Z" fill="black"/>
<path d="M250.994 301.44C260.138 295.834 270.76 299.152 268.764 309.728C267.878 314.428 244.798 341.668 235.94 325.996C233.182 321.114 217.92 242.804 216.406 231.456C215.5 224.684 217.342 221.232 223.62 218.058C229.524 217.598 322.978 230.546 328.204 232.962C346.784 241.552 306.464 285.654 299.398 256.448C300.022 253.502 300.956 251.316 302.584 248.766L238.478 239.704L240.226 245.486C241.946 264.29 248.422 282.712 250.994 301.44Z" fill="black"/>
<path d="M346.786 354.476C335.692 355.128 315.75 329.464 307.586 321.232C298.806 312.378 256.84 280.998 282.178 272.562C283.646 272.54 285.074 272.738 286.484 273.15C289.178 273.936 340.054 323.958 349.262 333.668C357.084 341.916 358.146 349.592 346.786 354.476Z" fill="black"/>
<path d="M681.44 354.476C671.33 355.732 664.034 345.106 671.58 336.734C679.372 328.086 730.054 276.362 737.038 272.562C744.562 272.198 753.004 275.682 750.32 285.062C748.374 291.864 686.308 351.71 681.44 354.476Z" fill="black"/>
<path d="M378.534 505.1C366.866 496.076 358.66 482.976 356.148 468.432C355.118 462.476 353.802 433.09 355.426 428.2C357.3 422.55 388.28 379.674 394.006 371.562C396.142 368.536 397.476 367.758 401.104 367.118H627.048C633.082 373.748 666.004 423.396 667.63 428.86C669.426 434.896 668.856 467.682 667.814 474.242C665.496 488.854 656.186 496.91 644.764 505.1C644.264 514.518 644.736 524.204 644.744 533.652L644.806 590.37C644.842 621.08 652.848 642.158 622.366 656.368C621.818 656.418 621.276 656.474 620.724 656.47L430.546 656.368C421.318 656.36 411.362 656.958 402.27 655.296C372.426 649.844 378.522 609.716 378.52 588.352L378.534 505.1ZM408.546 387.356C402.188 394.292 388.788 413.278 383.97 421.63H417.748C422.364 421.864 426.87 421.81 431.484 421.63C435.556 410.414 438.558 398.848 441.738 387.356H408.546ZM614.304 387.356H582.2C584.304 398.994 588.206 410.328 591.646 421.63H607.902C618.208 421.662 628.812 422.218 639.088 421.63C636.008 417.004 618.07 388.368 615.004 387.19L614.304 387.356ZM463.036 387.356L453.138 421.63H492.786H501.52V387.356H463.036ZM522.412 387.356C521.374 398.49 522.482 410.396 522.412 421.63H571.266C567.954 410.1 563.662 398.87 560.322 387.356C547.698 387.35 535.03 387.108 522.412 387.356ZM622.366 442.464H594.562C594.438 465.042 591.972 489.698 622.366 489.548C651.34 488.61 648.398 464.33 648.242 442.464C639.62 442.332 630.99 442.43 622.366 442.464ZM374.988 442.464C374.902 457.292 373.928 472.214 385.192 483.62C394.9 493.45 410.642 494.508 420.37 484.072C433.502 474.73 429.086 456.404 429.13 442.464H374.988ZM449.49 442.464C449.422 455.366 446.756 472.874 456.318 482.896C467.17 494.272 480.836 491.798 492.786 484.072C503.756 470.99 501.554 458.452 501.52 442.464H449.49ZM522.412 442.464C521.976 449.138 521.412 464.796 522.88 470.864C527.86 491.422 552.296 493.728 566.71 482.148C577.306 471.1 574.538 456.636 574.468 442.464H522.412ZM511.674 494.026C490.484 511.048 461.988 520.772 442.126 495.93L440.632 494.026C426.52 506.64 418.62 511.45 399.188 510.522L399.158 617.084C399.14 621.462 398.814 626.006 399.188 630.364C405.472 636.962 412.088 635.728 420.37 635.528C420.364 623.562 419.008 551.468 421.762 546.09C430.788 542.57 456.098 544.83 466.678 544.808C475.192 544.79 503.226 540.604 506.03 550.404V635.528L578.456 635.556C634.13 635.556 624.082 644.38 624.056 588.13L624.052 510.522C608.426 510.628 594.67 505.832 584.236 494.026C567.146 511.408 539.004 517.99 519.292 500.55C517.234 498.728 514.114 495.05 511.674 494.026ZM440.632 564.998V635.528H485.358V564.998C470.456 564.996 455.532 564.82 440.632 564.998Z" fill="black"/>
<path d="M201.722 573.202C192.87 584.45 179.888 570.55 172.149 565.026L131.494 535.574C122.145 528.784 94.4023 515.46 111.516 501.786C119.899 495.088 129.169 489.226 137.858 482.904L167.649 461.178C174.469 456.214 183.282 448.318 191.069 445.548C194.886 444.948 198.973 445.154 201.306 448.75C208.528 459.882 201.816 503.718 184.113 474.626C166.633 486.486 149.759 499.524 132.736 512.042C150.603 523.054 166.947 536.822 184.113 548.882C198.173 523.754 208.724 553.226 201.722 573.202Z" fill="black"/>
<path d="M840.186 476.342C837.034 484.142 827.262 487.234 822.864 478.236C819.708 471.78 818.338 450.336 827.976 445.548C837.844 444.128 848.628 456.502 856.13 461.948C870.858 472.642 885.968 482.84 900.65 493.568C907.674 498.702 925.336 507.532 916.61 518.026C910.504 525.372 891.876 536.106 883.328 542.27L853.734 563.83C847.644 568.262 838.764 577.208 830.968 577.934C812.036 573.864 819.612 532.44 835.38 540.93C838.434 542.574 839.19 545.834 840.186 548.882C855.37 534.936 873.778 524.78 889.982 512.042C873.096 500.598 857.388 487.382 840.186 476.342Z" fill="black"/>
<path d="M187.427 520.124C177.438 510.138 185.953 501.734 197.174 501.122L260.914 501.11C271.46 501.11 283.272 500.124 293.668 501.652C303.922 503.162 307.6 521.36 288.574 521.606L232.498 521.632C222.378 521.634 195.768 523.016 187.427 520.124Z" fill="black"/>
<path d="M830.968 521.606C826.076 522.006 821.102 521.684 816.196 521.646L792.862 521.616C781.438 521.612 734.698 523.812 726.45 520.33C717.912 516.726 719.686 504.07 729.608 501.122C733.642 500.79 737.87 501.086 741.922 501.096L767.118 501.098C777.894 501.096 825.71 499.052 833.128 502.278C842.622 506.408 839.472 518.626 830.968 521.606Z" fill="black"/>
<path d="M740.222 750.704C729.894 750.18 719.002 733.702 712.138 726.838L683.47 698.468C677.284 692.23 653.202 669.73 677.334 668.524C687.33 666.408 734.156 718.91 743.152 728.868C751.416 738.014 753.5 746.08 740.222 750.704Z" fill="black"/>
<path d="M286.604 750.704C273.42 750.386 270.176 740.752 278.756 731.328C287.828 721.366 334.854 672.37 343.546 668.524C350.494 668.452 358.018 672.448 355.84 680.69C354.322 686.43 346.74 691.874 342.74 695.918L320.448 718.27C313.168 725.518 293.69 746.53 286.604 750.704Z" fill="black"/>
<path d="M773.782 720.67C764.638 727.982 750.528 724.516 755.4 712.324C757.302 707.566 773.686 692.26 778.53 690.038C791.98 689.092 792.02 702.82 793.54 712.688L797.502 737.76C800.2 753.792 806.586 781.42 806.784 797.136C806.976 812.502 783.998 805.262 775.61 803.906L731.452 796.478C720.846 794.672 709.056 793.99 698.774 791.304C690.556 789.158 687.066 779.712 693.894 774.08L694.348 773.712C720.862 738.714 730.352 763.766 720.67 773.712C741.438 778.378 762.902 780.512 783.816 784.618C782.69 768.458 777.274 737.184 773.782 720.67Z" fill="black"/>
<path d="M324.674 768.924C340.926 786.258 334.77 790.736 312.308 793.864L249.456 802.818C239.728 804.186 220.998 810.54 217.912 796.608C216.966 792.332 229.806 718.502 233.144 702.326C234.504 695.732 236.096 693.672 242.942 692.072C252.33 691.776 270.146 710.184 270.68 717.926C271.342 727.51 258.706 728.45 250.994 720.67C246.85 737.044 241.968 767.886 240.226 784.618C248.36 782.532 256.898 781.636 265.202 780.436L304.15 774.926C295.804 767.36 296.856 753.612 306.706 754.236C313.65 754.676 320.162 764.096 324.674 768.924Z" fill="black"/>
<path d="M514.788 835.096C504.394 835.378 502.082 830.456 501.644 821.37C501.15 811.114 500.704 733.61 502.376 729.27C503.754 725.696 506.836 724.408 510.132 723.1C520.65 722.162 522.012 729.962 522.322 738.044C522.712 748.15 523.258 825.626 521.5 829.61C520.136 832.7 517.84 833.982 514.788 835.096Z" fill="black"/>
<path d="M579.434 831.514C572.254 844.17 557.166 861.75 548.19 873.78L529.916 898.452C525.782 904.07 520.8 914.144 513.476 916.01C503.756 918.486 487.428 889.676 482.192 882.68L460.586 853.33C454.904 845.612 433.828 823.32 454.688 819.144C463.332 819.002 501.708 816.926 483.1 836.61C480.186 837.568 477.548 838.212 474.502 838.634C485.2 854.298 499.928 873.45 511.674 888.22C524.794 873.494 537.474 854.626 549.084 838.634C540.01 838.69 532.044 829.63 539.046 822.612C544.476 817.17 563.528 819.106 571.266 819.144C575.772 822.062 578.684 826.07 579.434 831.514Z" fill="black"/>
</svg>
