<?xml version="1.0" encoding="utf-8" ?><svg xmlns="http://www.w3.org/2000/svg" xmlns:xlink="http://www.w3.org/1999/xlink" width="512" height="512" viewBox="0 0 512 512"><path d="M180.908 102.164C186.146 100.251 191.06 97.3556 196.319 95.3689C214.405 88.537 231.916 85.6176 251.131 84.5363C296.255 84.3999 342.27 99.1666 373.939 132.527C394.904 117.855 418.262 143.856 399.376 163.526C402.238 168.293 405.175 173.001 407.696 177.961C447.856 256.977 422.626 352.412 347.349 400.13C353.018 423.025 324.753 435.521 311.112 416.546C295.457 423.051 284.071 422.365 269.19 425.768C263.302 425.451 257.313 425.83 251.409 425.747C209.247 425.156 165.358 406.949 135.866 376.661C117.121 384.061 101.833 364.223 111.293 346.799C107.571 341.532 104.506 335.789 101.671 330.008C67.1878 259.683 87.7185 174.613 147.936 125.652C138.778 103.148 162.989 86.2612 180.908 102.164ZM248.613 93.7283C225.341 95.7883 207.159 100.073 185.531 110.127C189.675 131.674 166.738 144.096 154.256 132.527C148.212 136.974 142.846 142.16 137.706 147.608C87.5756 200.754 80.9142 278.172 117.833 340.364C137.086 331.792 154.004 348.07 146.53 366.123C145.854 367.753 144.998 369.334 144.189 370.902C147.754 375.778 153.023 379.887 157.783 383.577C186.546 405.88 223.611 417.469 259.938 416.546C278.961 415.877 290.25 412.764 307.762 408.35C308.517 387.541 328.456 378.096 342.823 391.948C417.06 346.11 439.638 246.266 393.967 172.363C392.998 170.795 391.984 169.236 390.91 167.738C372.955 172.37 363.348 155.442 368.109 138.828L367.801 138.636C364.312 136.432 361.322 132.983 358.175 130.295C328.342 104.82 287.529 92.2706 248.613 93.7283ZM165.053 105.124C158.87 105.619 154.262 111.036 154.764 117.218C155.266 123.4 160.687 128.003 166.869 127.494C173.041 126.987 177.635 121.575 177.134 115.402C176.633 109.229 171.226 104.629 165.053 105.124ZM384.652 137.372C378.758 138.33 374.755 143.88 375.706 149.775C376.657 155.669 382.204 159.679 388.099 158.734C394.003 157.787 398.02 152.231 397.067 146.328C396.115 140.424 390.554 136.413 384.652 137.372ZM127.254 347.04C121.238 347.551 116.776 352.844 117.29 358.86C117.805 364.876 123.101 369.334 129.116 368.816C135.126 368.298 139.58 363.008 139.066 356.998C138.552 350.988 133.265 346.531 127.254 347.04ZM327.057 395.092C321.075 395.688 316.723 401.045 317.365 407.022C318.007 413 323.397 417.31 329.37 416.622C335.278 415.942 339.531 410.623 338.896 404.71C338.261 398.797 332.975 394.502 327.057 395.092Z"/><path d="M228.855 152.285C225.15 149.445 216.977 148.268 216.643 142.669C216.202 135.277 237.043 129.853 242.639 129.648C251.184 129.641 272.569 131.222 273.792 142.908C274.582 150.452 267.729 156.473 261.75 159.793C250.933 165.801 249.927 164.527 241.464 174.577C235.032 181.164 227.968 172.63 225.527 166.708C223.187 161.03 226.801 157.229 228.855 152.285ZM240.208 138.828C236.631 139.435 233.344 140.603 230.134 142.289C248.418 151.919 228.473 157.404 236.418 166.623C238.677 163.8 241.117 161.391 243.866 159.05C250.34 153.974 261.764 152.114 264.793 144.1C259.165 139.296 247.488 138.225 240.436 138.807L240.208 138.828Z"/><path d="M180.052 168.416C176.803 167.345 173.441 164.554 176.497 160.954C180.29 156.485 197.205 151.025 204.269 150.597C218.279 150.721 225.484 164.816 217.741 176.184C220.665 186.909 233.803 201.031 212.23 205.356C204.578 216.862 201.603 214.55 191.625 221.217C183.401 226.713 187.325 236.509 182.245 239.621C175.564 243.716 163.304 222.895 160.887 240.03C166.208 242.123 170.791 240.615 174.57 241.881C176.412 242.498 183.272 257.728 182.441 259.634C178.267 269.216 170.799 255.319 169.385 250.509C164.175 250.505 157.12 249.449 153.769 245.19C149.812 240.16 152.945 230.872 157.381 227.223C163.504 223.235 170.809 223.777 176.611 228.064C182.663 211.509 189.306 214.056 200.522 205.575C203.244 203.517 204.091 199.911 206.988 198.001C209.666 196.236 213.103 196.747 215.385 194.119C215.435 192.956 210.042 181.768 209.048 177.312C207.472 175.773 206.431 175.08 204.269 174.577C198.113 177.859 203.774 179.137 205.101 182.382C206.468 185.722 202.292 189.407 199.083 188.006C186.922 182.698 191.358 168.212 201.141 164.926C204.832 163.686 208.965 166.205 212.23 167.738C210.161 151.139 188.582 165.406 180.384 168.3L180.052 168.416Z"/><path d="M279.596 196.866C286.095 189.735 277.98 181.309 284.027 172.65C288.437 166.335 298.673 155.634 305.942 154.324C311.574 153.841 329.434 156.409 332.092 162.342C333.192 164.797 332.069 168.019 329.465 168.951C323.982 170.914 312.995 157.252 302.635 165.926C299.936 168.187 291.656 177.309 290.328 180.107C290.824 183.62 291.185 192.465 297.047 188.304C298.539 187.246 301.849 169.367 308.727 180.107C309.705 193.489 302.885 199.1 290.328 197.685C288.598 200.736 285.473 202.701 283.726 205.603C281.788 208.822 282.568 212.226 279.825 215.504C276.474 219.509 264.42 228.864 280.298 225.551C296.548 222.159 294.916 228.34 306.019 232.431C309.631 233.761 313.376 233.288 317.101 233.786C321.404 234.362 323.608 239.931 319.371 242.38C314.786 245.031 301.308 240.493 297.187 237.729C283.995 228.883 274.21 235.689 267.228 247.758C260.732 258.985 267.823 276.284 281.776 276.272C297.225 276.26 293.367 279.027 296.911 291.519C300.139 302.896 303.23 295.584 298.337 312.577C299.99 317.205 304.967 328.893 307.585 332.532C313.862 341.259 328.202 310.516 329.03 306.485C331.324 295.319 324.649 295.744 336.863 283.487C339.58 280.55 341.329 277.56 342.823 273.866C332.6 272.455 327.639 263.612 321.874 255.883C319.839 253.155 319.724 250.24 322.736 248.167C329.132 243.762 336.058 263.811 342.024 264.54C344.292 264.817 349.514 253.556 353.709 261.544C356.768 267.367 348.687 283.622 344.792 288.126C342.628 290.628 339.622 292.898 338.666 296.194C338.415 300.779 339.194 305.44 337.818 309.909C335.442 317.62 323.785 338.141 316.483 341.891C309.673 345.389 302.083 342.867 298.708 336.063C291.98 322.501 287.323 316.629 291.91 302.774L291.788 302.398C289.553 295.381 287.284 294.289 286.851 285.516C284.817 285.56 282.777 285.622 280.742 285.603C266.229 285.473 255.22 270.323 255.459 256.626C255.626 247.124 260.45 240.064 267.071 233.675C256.929 213.232 272.342 218.689 273.618 204.342C269.817 203.915 264.654 203.596 265.272 198.491C267.046 183.837 280.473 182.586 276.669 195.975C277.636 196.296 278.621 196.572 279.596 196.866Z"/><path d="M173.803 277.029C169.162 271.888 163.666 266.948 157.934 263.046C140.929 251.469 144.02 259.722 135.514 239.67C130.569 228.011 127.778 224.857 131.294 211.643C132.67 206.471 139.99 187.724 144.189 185.283C154.037 184.597 149.152 193.261 146.759 198.075C143.436 204.758 139.211 212.961 138.75 220.476C138.495 224.638 145.415 240.255 147.808 245.192C150.321 250.375 154.434 250.405 159.099 252.972C166.688 257.147 173.003 263.641 178.654 270.082C190.504 260.913 195.702 265.683 208.701 271.073C215.279 273.801 215.166 276.437 217.633 282.382L217.741 282.638C225.288 286.765 239.565 289.896 238.491 301.234C238.161 304.717 235.748 307.432 235.03 310.787C232.845 320.988 238.268 324.459 223.901 329.997C222.066 332.627 216.119 347.842 216.64 351.237C218.401 356.049 224.893 363.161 216.685 366.131C200.936 371.832 187.925 345.22 186.175 331.991C185.642 327.956 185.816 322.869 183.967 319.173C180.513 312.266 172.81 308.302 169.625 299.712C166.455 291.158 170.342 284.644 173.803 277.029ZM190.016 273.866C184.197 275.951 182.125 280.798 179.657 286.059C173.093 300.05 186.343 303.85 191.778 314.487C199.02 328.661 190.194 340.597 209.048 356.49C207.861 353.07 207.026 350.48 207.596 346.799C209.616 341.357 213.484 328.447 216.75 324.47C218.95 321.791 222.239 321.342 225.029 319.638C226.919 315.543 225.308 312.035 226.251 307.833C226.869 305.083 229.285 302.145 229.097 299.425C226.376 294.734 215.962 293.287 211.666 289.396C208.889 286.881 208.62 281.491 206.243 279.973C204.094 278.6 192.505 273.843 190.016 273.866Z"/></svg>