<svg width="1024" height="1024" viewBox="0 0 1024 1024" fill="none" xmlns="http://www.w3.org/2000/svg">
<path d="M275.394 283.07C234.318 311.408 177.178 282.848 180.194 232.534C181.859 204.754 205.624 176.728 235.064 178.49C267.28 165.305 321.882 219.85 286.728 271.102C296.178 277.93 307.188 290.556 315.706 299.048L335.582 318.906C340.526 323.864 345.756 328.704 349.95 334.328C357.052 329.196 363.312 323.02 370.484 317.91C447.876 262.764 553.176 255.602 635.106 306.318C649.61 315.296 662.038 326.65 675.862 336.48C683.622 325.464 702.498 309 712.664 299.194C678.978 254.662 698.492 191.508 753.442 179.815C793.562 171.277 834.61 196.497 842.6 237.378C855.638 304.102 782.552 350.384 725.138 311.058C712.678 324.034 699.94 337.032 686.416 348.906C765.574 432.056 776.456 564.718 704.148 656.598C699.258 662.81 693.282 668.788 689.496 675.734L689.062 676.544C701.552 687.472 713.374 699.74 725.138 711.474C772.246 680.092 837.188 704.634 843.426 762.008C846.872 793.716 836.8 806.73 818.81 828.91C815.6 829.544 812.284 832.936 809.588 834.71C736.116 882.996 655.08 782.898 712.664 722.374C702.904 714.136 685.512 694.18 675.862 688.94C670.78 691.514 666.95 695.48 662.536 698.984C584.882 760.682 469.946 767.85 385.386 715.51C372.832 707.738 361.316 698.32 349.95 688.94C329.176 708.156 310.706 730.318 289.066 748.502C306.01 778.448 291.7 816.884 255.51 822.688C209.844 830.01 182.543 779.412 209.236 743.996C225.234 722.768 256.534 720.126 277.2 735.996C297.184 720.57 317.828 694.346 338.756 676.544C247.038 594.284 252.778 432.28 338.756 346.45C331.774 338.97 324.224 331.95 316.978 324.72L275.394 283.07ZM232.924 194.774C210.258 198.326 194.761 219.576 198.307 242.244C201.852 264.91 223.1 280.414 245.768 276.872C268.444 273.33 283.954 252.074 280.406 229.4C276.858 206.724 255.598 191.221 232.924 194.774ZM763.924 195.743C732.856 198.929 710.25 226.694 713.426 257.764C716.604 288.834 744.362 311.448 775.432 308.28C806.518 305.112 829.144 277.338 825.966 246.256C822.786 215.172 795.006 192.554 763.924 195.743ZM498.176 289.75C449.556 293.806 399.294 312.658 363.268 346.45C371.724 354.81 383.126 364.484 389.958 374.024C397.35 379.758 403.82 386.998 410.424 393.612C427.372 379.006 480.79 351.438 503.998 350.43V289.75C502.066 289.742 500.106 289.664 498.176 289.75ZM520.626 289.75V352.194C554.968 354.982 590.368 371.066 615.058 395.176C623.302 387.396 631.252 379.326 639.462 371.52C646.834 363.718 654.434 355.384 663.012 348.906C624.822 317.422 570.942 287.104 520.626 289.75ZM349.95 358.302C314.286 400.418 291.888 445.37 289.066 501.872H352.626H384.148C386.114 464.666 382.636 465.89 410.424 442.638C405.756 432.582 405.13 425.378 407.418 414.562C390.426 399.872 365.916 368.984 349.95 358.302ZM673.948 361.324L646.698 388.894C640.088 395.508 632.866 401.748 627.138 409.154C657.482 440.036 654.994 467.196 665.218 501.872H689.062H734.512C734.58 454.61 708.538 395.744 675.422 362.566C674.962 362.106 674.518 361.644 673.948 361.324ZM505.176 368.564C513.192 381.428 503.09 389.624 490.296 397.336C482.214 402.21 472.798 396.08 464.998 393.612C445.194 404.324 451.356 405.158 441 419.266C437.378 424.2 432.188 428.338 427.87 432.686C454.928 431.546 447.926 406.46 473.772 415.932C485.06 420.07 489.674 425.03 495.546 435.234C497.542 430.598 500.14 421.508 505.112 419.384C510.968 416.884 547.622 423.946 550.56 432.88C552.376 438.402 548.308 457.106 541.05 458.94C531.858 461.264 498.364 461.024 487.306 460.524C481.704 456.04 476.5 450.69 470.446 446.836C458.308 446.474 439.872 447.518 427.87 449.174C419.786 457.422 411.19 465.136 402.78 473.048C402.7 484.098 403.886 500.01 398.178 509.692C406.272 519.588 414.818 529.192 422.53 539.386C445.954 536.562 456.348 533.102 475.526 550.098C475.308 566.882 483.162 580.106 487.306 595.966C484.794 600.854 482.172 605.786 480.394 610.998C483.19 618.836 490.194 639.714 495.546 645.14C496.35 647.454 497.116 649.752 498.176 651.964C507.864 650.242 517.676 648.51 527.44 647.296C536.43 619.392 543.202 620.806 552.004 602.368C551.842 554.588 554.784 562.496 580.95 530.57C575.43 528.242 568.84 526.412 564.006 522.828C557.954 518.342 536.958 487.79 533.78 480.344C530.74 473.218 537.872 464.438 544.828 468.74C547.438 470.354 567.846 502.776 573.914 509.692C580.216 507.254 585.832 503.152 591.434 499.432C588.142 496.316 583.424 493.038 582.222 488.57C577.332 484.812 569.308 486.66 568.302 476.862C567.28 466.91 579.3 469.076 585.124 470.81C597.366 474.45 598.962 474.022 611.152 471.256C622.646 476.156 629.846 488.57 646.92 495.364C644.592 484.13 642.166 472.408 638.246 461.622C618.342 406.862 563.936 367.284 505.176 368.564ZM487.306 374.024C483.444 375.348 479.274 376.526 475.768 378.642L475.516 379.4C476.056 379.67 476.542 379.964 477.134 380.092L483.304 381.674C485.152 379.618 487.132 377.676 488.332 375.16L488.186 374.242L487.306 374.024ZM431.23 399.45C428.172 401.406 425.342 403.476 422.53 405.768L425.638 409.154L427 409.902C429.694 408.584 431.136 403.122 431.724 400.216L431.23 399.45ZM513.396 435.234C512.45 438.16 511.492 441.076 510.472 443.978C517.308 444.47 524.584 444.794 531.41 443.978L533.212 442.922L533.424 441.968C531.06 438.646 517.742 436.38 513.396 435.234ZM602.93 489.57C617.984 506.166 605.032 508.686 591.434 518.666C619.258 536.874 569.558 550.748 568.438 582.898C568.172 590.528 569.432 598.13 569.068 605.754C565.678 614.758 556.838 622.21 551.792 630.434C539.136 651.06 550.884 662.294 520.626 664.376V732.53C560.926 732.774 606.328 716.94 639.462 694.306C647.474 688.59 655.008 682.24 663.012 676.544C651.144 660.538 625.852 639.904 611.152 624.914C554.24 670.936 555.664 636.44 569.068 631.758C578.16 615.156 584.446 582.296 609.536 602.368C631.874 578.296 645.146 549.074 646.92 516.132C639.798 511.512 631.646 508.552 624.798 503.606C615.818 497.12 614.21 488.558 602.93 489.57ZM289.066 518.666C286.43 566.546 317.656 631.216 349.95 664.376C362.192 650.992 389.638 621.46 404.146 610.998C417.456 592.988 441.24 574.748 456.992 557.344C440.278 547.362 425.298 562.914 410.306 550.48C402.738 544.202 390.792 527.068 384.148 518.666H289.066ZM665.218 518.666C661.622 521.012 662.018 534.248 661.18 538.558C655.584 567.312 642.458 591.612 622.74 613.154C638.76 627.23 661.542 648.324 675.862 664.376C678.356 661.314 680.796 658.186 683.402 655.218C715.22 616.49 734.308 569.094 734.512 518.666H665.218ZM462.834 576.36L380.174 658.068C374.43 663.828 367.54 669.606 363.268 676.544C374.552 691.694 411.194 710.028 427.87 716.908C451.984 726.316 477.904 732.956 503.998 732.53V666.64C494.798 668.548 487.818 670.666 482.8 661.348C477.884 652.22 465.446 620.94 462.834 610.998C464.282 604.994 466.558 599.35 468.882 593.644C467.772 589.854 465.236 578.506 462.834 576.36ZM595.196 613.154C594.32 614.648 593.606 615.884 593.248 617.59L593.686 618.194L595.196 617.558C597.67 615.584 599.87 613.546 595.196 613.154ZM762.076 714.502C730.48 718.318 707.946 747.006 711.72 778.606C715.496 810.208 744.154 832.78 775.76 829.044C807.424 825.304 830.046 796.582 826.264 764.922C822.482 733.264 793.73 710.68 762.076 714.502ZM244.372 743.26C227.058 744.868 214.334 760.22 215.968 777.532C217.602 794.844 232.974 807.544 250.282 805.884C267.556 804.228 280.222 788.896 278.592 771.62C276.962 754.346 261.65 741.656 244.372 743.26Z" fill="black"/>
</svg>
