<?xml version="1.0" encoding="utf-8" ?><svg xmlns="http://www.w3.org/2000/svg" xmlns:xlink="http://www.w3.org/1999/xlink" width="512" height="512" viewBox="0 0 512 512"><path d="M193.504 325.3C137.43 322.598 92.6264 274.673 91.9555 218.863C91.2847 163.064 137.107 112.347 193.504 111.773C198.795 111.012 204.365 111.615 209.645 112.178C262.031 117.757 302.97 160.869 306.07 213.523C309.596 273.419 263.294 321.909 204.232 325.3L204.232 342.246C233.2 342.093 237.21 348.868 255.161 366.967L271.102 383.068C273.256 385.22 280.366 391.069 281.257 393.856C282.151 396.651 279.244 400.338 276.376 400.356C272.576 400.381 241.952 368.775 237.795 364.621C227.25 354.079 219.271 352.993 204.989 352.993C177.413 352.925 171.591 353.516 151.731 373.329C148.39 376.662 125.298 401.131 121.598 400.937C117.829 400.74 114.544 395.983 116.988 392.646C119.519 389.19 123.196 386.127 126.243 383.113L145.01 364.624C160.276 349.694 170.032 341.993 193.504 342.246L193.504 325.3ZM196.222 122.287C143.028 123.858 101.198 168.286 102.83 221.477C104.462 274.669 148.938 316.448 202.128 314.754C255.231 313.063 296.927 268.676 295.297 215.571C293.668 162.466 249.328 120.719 196.222 122.287Z"/><path d="M388.996 164.222C368.976 151.087 374.894 125.169 397.02 122.492C425.053 122.329 429.122 162.151 399.802 165.822C389.404 195.809 370.875 217.473 348.532 238.734C353.921 259.705 337.562 271.545 317.757 264.8C291.542 245.165 318.871 212.279 341.931 229.717C360.118 214.782 381.248 187.186 388.996 164.222ZM396.759 133.628C390.867 134.555 386.845 140.085 387.776 145.975C388.707 151.866 394.24 155.885 400.13 154.949C406.014 154.015 410.028 148.489 409.097 142.604C408.167 136.719 402.644 132.701 396.759 133.628ZM326.136 235.732C320.483 236.902 316.847 242.432 318.014 248.086C319.181 253.74 324.709 257.379 330.364 256.214C336.022 255.049 339.663 249.516 338.495 243.859C337.328 238.201 331.793 234.562 326.136 235.732Z"/><path d="M196.587 147.28C193.531 147.226 188.483 148.383 185.899 146.521C178.608 141.269 187.122 136.858 193.504 136.353C205.905 134.07 211 146.548 196.587 147.28Z"/><path d="M122.65 218.747C115.376 219.146 116.427 211.642 117.216 206.545C121.235 180.572 135.601 159.81 158.427 146.716C161.283 145.078 164.206 143.268 167.452 142.549C171.926 142.784 176.029 147.479 172.269 151.517C169.979 153.977 163.694 156.198 160.479 158.105C144.402 167.645 131.804 185.292 128.669 203.697C127.739 209.152 129.058 216.546 122.65 218.747Z"/><path d="M193.504 177.281C193.315 172.95 192.904 169.842 197.613 168.304C203.622 168.182 203.761 172.325 204.232 177.281C212.825 180.274 225.705 192.819 221.301 202.026C219.95 204.851 216.134 206.232 213.403 204.578C209.443 202.179 210.563 183.872 195.092 188.044C186.321 190.41 182.652 202.088 189.651 208.503C193.45 211.985 197.551 211.05 202.124 211.825C224.159 215.558 229.361 249.151 203.337 257.634C203.425 261.54 203.119 263.781 199.136 265.258C194.047 265.529 193.175 261.898 193.504 257.634C182.436 255.134 169.815 241.482 176.172 230.866C182.603 226.638 184.706 231.809 185.778 236.937C189.229 253.442 213.698 247.464 209.658 231.695C207.349 222.683 199.631 223.409 192.631 221.96C168.901 217.05 169.027 182.915 193.504 177.281Z"/><path d="M390.727 262.07C388.004 263.819 385.508 265.905 382.913 267.835L329.899 307.469C326.648 309.862 317.906 317.1 314.849 318.5C310.739 320.384 305.975 315.473 307.983 311.403C309.845 307.629 316.803 303.774 320.144 301.287L375.308 260.022C380.669 256.038 388.672 248.439 394.902 246.524C399.723 246.205 403.826 252.717 406.882 255.746C411.073 259.899 416.065 263.853 419.639 268.552C422.103 271.791 419.386 276.496 415.378 276.492C411.225 276.488 404.331 267.814 401.473 264.8L401.476 359.359C401.476 363.27 401.698 367.375 401.396 371.269C401.072 375.438 396.154 378.526 392.717 375.272C389.475 372.202 390.723 365.233 390.724 361.262L390.727 274.625L390.727 262.07Z"/><path d="M364.027 376.048C361.519 376.558 358.883 376.235 357.573 373.708C355.72 370.13 356.673 314.242 357.454 312.372C358.113 310.793 359.206 310.181 360.727 309.564C363.617 309.373 367.075 310.159 367.446 313.596C367.853 317.369 367.74 371.354 367.366 372.658C366.873 374.373 365.517 375.259 364.027 376.048Z"/><path d="M330.488 376.939C328.049 377.366 325.507 376.781 324.209 374.45C322.492 371.364 323.082 337.124 323.89 334.913C324.5 333.245 326.062 332.427 327.582 331.747C332.13 331.515 333.639 334.29 333.898 338.215C334.366 345.3 337.131 373.965 330.488 376.939Z"/><path d="M297.028 376.048C287.334 375.383 291.64 352.967 292.593 351.566C293.574 350.123 295.437 349.827 297.028 349.575C305.269 350.831 301.916 372.458 301.027 373.813C300.021 375.35 298.718 375.651 297.028 376.048Z"/></svg>