<svg width="1024" height="1024" viewBox="0 0 1024 1024" fill="none" xmlns="http://www.w3.org/2000/svg">
<path d="M376.396 873.538L324.132 873.562C288.268 873.576 253.324 870.788 243.36 826.424C239.992 811.418 241.56 790.236 241.582 774.542L241.574 311.296C241.562 275.86 233.48 274.98 258.21 250.96L319.176 191.372C325.476 185.116 357.2 151.057 363.352 150.092C373.61 148.483 384.796 149.302 395.176 149.301L646.628 149.306L695.09 149.282C708.35 149.265 722.96 148.015 735.892 151.09C776.164 160.669 782.65 192.141 782.624 226.544L782.942 813.734C782.88 841.574 761.962 868.23 734.012 872.774C721.916 874.74 708.424 873.54 696.162 873.53L376.396 873.538ZM376.396 170.046L376.414 209.5C376.416 238.63 378.212 270.554 341.462 279.412C326.46 283.03 279.496 280.454 261.756 280.636L261.722 797.634C261.438 856.28 286.876 853.076 331.26 853.082L646.628 853.066L695.424 853.082C743.596 853.074 761.556 852.524 761.506 794.55L761.484 217.076C761.058 167.044 729.534 169.989 690.066 170.036L376.396 170.046ZM355.49 186.45C337.086 200.804 296.5 240.852 280.308 258.976L280.318 259.63L280.574 259.84L310.73 259.88C330.52 259.876 354.538 261.128 355.48 234.14C355.708 227.65 356.968 189.416 355.49 186.45Z" fill="black"/>
<path d="M557.984 284.764C557.874 274.966 555.94 265.582 566.564 261.048C581.088 260.268 579.086 274.44 578.834 284.764C599.86 286.472 629.026 299.35 637.062 319.924C641.552 331.424 629.63 336.458 620.53 332C617.908 328.026 615.374 323.576 611.92 320.27C586.044 295.502 520.206 305.644 521.976 330.338C524.082 359.676 600.282 350.294 626.602 372.942C641.928 386.13 643.024 408.206 629.858 423.382C617.526 437.596 596.968 443.378 578.834 444.614C578.44 451.586 580.394 461.022 576.702 467.144C572.012 472.046 565.266 473.632 560.392 468.004C555.628 462.502 557.636 451.342 557.984 444.614C542.292 442.174 512.922 434.932 503.104 420.774C499.548 415.646 500.768 408.22 506.18 404.864C515.034 399.374 523.366 410.932 530.092 415.202C550.796 428.35 610.85 430.41 618.802 399.284C610.906 368.482 547.386 382.66 517.494 360.224C500.762 347.664 496.276 325.514 509.384 308.588C520.696 293.982 540.246 286.92 557.984 284.764Z" fill="black"/>
<path d="M422.886 289.092C422.194 281.034 421.766 276.034 430.092 272.582C441.354 271.806 442.41 279.73 444.482 289.092C458.736 295.714 470.804 304.588 475.258 320.674C476.964 326.83 476.494 335.726 468.996 337.516C456.868 340.412 457.25 328.704 453.106 321.232C439.584 296.848 404.352 312.692 412.762 336.864C418.122 352.276 430.704 349.812 443.198 351.8C484.862 358.436 489.44 418.736 444.482 432.738C444.45 439.088 444.762 445.21 439.74 449.99C425.092 457.72 422.898 443.726 422.886 432.738C405.688 426.126 390.712 413.958 391.518 393.742L391.84 393.184C405.074 370.668 413.88 405.232 422.542 410.234C439.046 419.764 461.54 404.494 455.14 385.206C448.814 366.136 427.838 374.896 414.002 367.874C380.192 350.714 384.9 300.56 422.886 289.092Z" fill="black"/>
<path d="M675.592 569.264L391.81 569.274C384.002 569.28 350.514 571.062 344.492 567.96C334.422 562.77 339.922 551.064 348.668 548.506L635.626 548.5C648.6 548.502 661.702 548.106 674.66 548.584C687.954 549.074 688.36 567.088 675.592 569.264Z" fill="black"/>
<path d="M675.592 656.792L386.508 656.796C374.508 656.798 362.356 657.278 350.374 656.864C336.712 656.392 335.58 637.718 350.11 635.846L636.396 635.836C648.904 635.834 661.644 635.324 674.126 635.844C688.074 636.424 688.436 655.036 675.592 656.792Z" fill="black"/>
<path d="M675.592 745.814L390.61 745.82C378.554 745.82 366.41 746.138 354.364 745.754C332.862 745.068 337.598 727.162 348.668 724.488L633.206 724.484C640.212 724.484 675.472 722.712 680.382 726.076C689.424 732.268 684.84 743.472 675.592 745.814Z" fill="black"/>
</svg>
