<?xml version="1.0" encoding="utf-8" ?><svg xmlns="http://www.w3.org/2000/svg" xmlns:xlink="http://www.w3.org/1999/xlink" width="512" height="512" viewBox="0 0 512 512"><path d="M365.668 88.9463L348.909 88.9632C345.63 88.964 338.755 89.9212 335.936 87.8427C331.996 84.9375 334.359 79.0417 339.053 78.542C344.459 78.5299 377.929 77.9784 380.293 79.1481C384.388 81.1742 382.528 95.8033 382.525 100.18C382.52 108.556 386.131 125.924 377.419 128.354C370.128 126.504 372.002 120.477 372.001 114.369L372.014 97.2944C363.948 104.705 356.569 112.993 348.813 120.74L277.632 191.985C273.131 196.495 269.121 203.409 263.203 198.244C256.95 192.787 251.29 186.603 245.361 180.809L209.053 145.6C200.442 150.739 192.026 150.903 183.584 144.791C178.115 150.172 169.878 155.903 163.695 160.758C148.943 172.344 131.945 185.255 118.023 197.778C123.202 213.567 113.134 227.691 96.4791 226.267C62.8135 221.021 81.6098 169.688 111.749 189.666C133.609 172.606 155.498 152.483 177.884 136.583C174.351 124.429 178.601 112.48 191.886 109.313C208.984 105.237 223.355 124.612 215.245 137.447C233.139 153.503 249.696 171.088 267.142 187.634C274.845 180.666 281.818 172.797 289.211 165.493L344.834 109.934C351.799 102.962 358.581 95.7937 365.668 88.9463ZM195.587 118.902C191.912 119.355 188.766 121.75 187.351 125.172C185.937 128.593 186.474 132.512 188.756 135.427C191.039 138.342 194.714 139.803 198.375 139.25C203.929 138.412 207.78 133.266 207.017 127.701C206.255 122.136 201.162 118.216 195.587 118.902ZM97.7099 195.528C92.0747 196.232 88.0479 201.328 88.6671 206.974C89.2863 212.619 94.3221 216.721 99.9759 216.187C103.709 215.834 106.963 213.497 108.49 210.072C110.017 206.647 109.58 202.665 107.347 199.652C105.114 196.639 101.431 195.063 97.7099 195.528Z"/><path d="M320.817 212.747C313.606 212.783 303.326 214.23 297.72 208.899C288.5 200.132 295.179 186.287 309.441 186.167L332.828 186.157C337.586 186.157 343.098 185.634 347.731 186.673C357.591 188.886 360.893 202.416 353.79 209.266C348.797 214.081 337.946 212.764 331.426 212.747L331.426 223.606C350.297 221.051 379.886 235.976 393.722 247.279C396.564 244.311 399.873 241.768 402.556 238.662C398.553 234.928 393.175 232.291 388.517 229.453C383.25 226.245 383.678 219.975 389.241 219.345C400.48 218.072 440.935 258.572 433.081 266.575C427.105 272.664 422.741 262.1 420.565 258.714C417.584 254.077 414.204 249.649 410.476 245.589C407.525 248.717 404.345 251.658 401.177 254.564C439.274 294.605 442.551 351.292 406.749 394.589C338.344 472.811 213.503 419.917 222.195 317.94C226.08 272.367 261.348 232.814 306.401 224.709C311.217 223.843 315.911 223.18 320.817 223.606L320.817 212.747ZM305.813 196.489C304.188 197.557 303.867 200.087 305.013 201.66C305.998 203.014 340.484 203.029 345.943 202.505C347.279 201.263 347.89 198.949 346.401 197.567C344.536 195.837 311.484 196.098 305.813 196.489ZM321.868 233.29C269.732 235.828 229.575 280.234 232.276 332.362C234.978 384.49 279.51 424.507 331.629 421.642C383.517 418.789 423.318 374.498 420.629 322.601C417.939 270.705 373.773 230.764 321.868 233.29Z"/><path d="M215.245 279.31C215.569 257.619 214.158 234.326 215.221 212.947C215.351 210.345 216.589 209.076 219.065 208.233C226.482 207.921 233.987 208.212 241.413 208.216C261.88 208.228 258.539 207.719 258.469 229.138C255.104 231.456 251.808 233.789 248.691 236.435C248.797 230.487 248.693 224.517 248.691 218.567C241.041 218.446 233.37 218.564 225.718 218.567L225.718 231.375C225.724 236.251 226.318 259.084 225.243 262.084C224.291 264.744 217.043 276.464 215.245 279.31Z"/><path d="M175.875 335.577L159.877 335.623C154.584 335.647 146.358 337.248 146.232 329.629C145.88 308.453 146.213 287.212 146.215 266.03L146.221 242.045C146.228 225.601 142.756 223.463 159.629 223.606L175.589 223.588C185.424 223.577 189.494 221.616 189.698 233.231C190.057 253.667 189.738 274.166 189.736 294.608L189.733 317.228C189.73 333.891 192.771 335.737 175.875 335.577ZM157.315 233.85L156.708 234.028C155.842 235.892 156.302 315.818 156.302 325.274L178.688 325.274L179.348 325.056C179.9 322.638 179.528 319.362 179.523 316.846L179.495 233.85L157.315 233.85Z"/><path d="M115.899 335.577L94.7604 335.601C81.1387 335.644 77.7577 338.585 77.7824 323.338L77.7737 277.45C77.7738 270.784 75.0544 256.611 83.0786 255.284C88.5586 255.279 114.9 254.559 118.3 256.119C123.237 258.384 120.931 284.027 120.93 289.714L120.944 316.022C120.95 322.878 123.554 333.751 115.899 335.577ZM88.2139 265.704L88.2064 305.079C88.2051 311.798 88.0506 318.558 88.2139 325.274L110.469 325.274L110.459 285.427C110.457 278.911 110.124 272.203 110.469 265.704C103.08 265.693 95.5922 265.427 88.2139 265.704Z"/><path d="M337.772 305.542C343.298 299.663 349.193 294.169 354.854 288.427L365.753 277.535C368.41 274.918 370.88 271.88 374.315 270.278C376.074 270.181 377.385 270.242 378.864 271.302C385.601 276.131 373.779 284.476 370.599 287.552C362.674 295.219 352.637 304.118 345.943 312.794C354.243 324.803 350.525 340.741 337.496 347.779C318.398 358.097 296.171 340.533 302.891 318.688C303.609 316.576 304.644 314.684 305.813 312.794C300.976 308.587 289.48 297.712 285.434 292.636C282.182 288.557 287.683 282.489 292.104 285.372C297.448 288.856 308.121 300.67 313.234 305.542C321.213 301.844 329.874 300.465 337.772 305.542ZM324.228 312.882C316.661 313.864 311.335 320.813 312.354 328.375C313.373 335.938 320.348 341.229 327.905 340.174C335.41 339.125 340.658 332.209 339.646 324.698C338.634 317.188 331.743 311.907 324.228 312.882Z"/></svg>