<?xml version="1.0" encoding="utf-8" ?><svg xmlns="http://www.w3.org/2000/svg" xmlns:xlink="http://www.w3.org/1999/xlink" width="512" height="512" viewBox="0 0 512 512"><path d="M332.325 225.196C337.498 216.594 337.044 211.528 337.048 201.752L337.048 159.685C337.049 152.018 337.501 143.892 335.748 136.383C331.352 117.548 315.137 103.067 295.901 101.06C288.332 100.27 280.277 100.805 272.649 100.806L129.951 100.796C112.895 100.79 100.301 100.738 87.1407 113.374C64.074 135.521 77.5423 164.683 72.2668 172.499C69.8174 176.128 63.729 174.522 63.2907 170.2C61.3461 151.026 62.921 127.028 75.1138 111.726C85.8653 98.2318 98.5913 92.575 115.394 90.7264C118.705 90.5624 122.104 90.7133 125.423 90.7168L262.914 90.726C273.281 90.7229 283.84 90.28 294.184 90.856C319.995 92.2933 342.867 112.486 346.425 138.391C347.233 144.272 347.019 150.353 347.01 156.277L347.017 201.641C347.023 210.617 347.188 216.523 344.376 225.196C384.002 225.186 427.949 245.276 444.211 283.271C462.129 325.138 433.104 363.84 394.634 379.988C396.713 387.192 408.363 412.439 405.363 417.591C400.336 426.226 388.947 414.965 384.097 411.59L366.576 399.411C361.683 395.974 356.823 392.414 351.724 389.289C324.86 389.306 301.331 386.404 277.61 371.697C262.603 362.393 271.922 357.069 276.235 359.073C278.661 360.201 280.905 361.963 283.173 363.386C297.688 372.491 316.225 377.585 333.105 378.945C353.143 380.56 349.047 375.073 365.136 386.176C374.305 392.503 383.468 399.28 392.605 405.47C390.919 399.387 388.634 393.351 386.515 387.404C380.592 370.781 383.599 374.729 396.207 368.426C428.227 352.416 451.195 318.468 433.291 283.357C410.918 239.484 348.851 225.899 304.841 241.159C266.447 254.473 232.827 293.898 254.863 334.23C257.153 338.421 260.457 341.979 262.582 346.267C263.414 350.567 259.788 355.255 255.349 352.183C251.097 349.24 244.648 336.514 242.764 331.555C233.719 307.744 239.375 285.749 252.896 265.46C245.256 265.774 237.48 265.457 229.824 265.446C214.798 265.426 217.015 267.709 205.716 276.721L171.153 304.751C165.625 309.278 151.176 323.89 144.011 322.603C131.553 320.364 137.916 306.054 140.072 298.555C143.278 287.404 146.945 276.223 149.707 264.959C139.37 265.609 123.335 265.364 113.103 264.732C87.6146 263.157 66.2458 241.903 63.5218 216.704C63.0123 211.991 62.038 191.517 64.8693 189.271C67.3873 187.273 71.5112 188.023 72.7103 191.139C74.24 195.114 72.7336 211.772 73.8347 218.4C78.0809 243.959 99.3825 255.002 123.42 255.005L138.044 254.99C162.072 254.958 162.66 257.727 155.337 282.002C152.426 291.649 149.298 301.536 146.941 311.328C157.496 302.576 168.426 294.258 179.028 285.552L201.901 266.95C216.675 255.113 212.841 255.691 231.292 255.696L261.408 255.71C275.498 237.988 311.116 227.74 332.325 225.196Z"/><path d="M191.194 130.592C191.242 125.25 188.795 114.387 194.257 112.247C197.606 112.058 215.049 111.578 216.838 113.169C219.248 115.313 218.298 127.207 218.277 130.592C221.319 131.316 224.215 132.431 227.133 133.538C229.448 130.606 237.62 120.603 241.926 122.454C244.786 123.684 256.907 135.543 257.986 138.446C259.225 141.779 249.872 148.817 247.424 153.845C249.057 156.419 250.255 159.367 251.495 162.148C256.867 162.153 267.065 159.711 268.253 165.989C268.889 169.343 269.696 185.874 267.163 188.8C265.716 190.473 254.24 189.802 251.495 189.785C250.728 193.889 248.797 197.906 247.424 201.849C252.135 205.157 261.33 212.154 256.393 217.989C241.165 235.985 242.286 234.013 227.133 220.472C224.232 221.681 221.308 222.728 218.277 223.561C218.31 228.444 219.817 237.075 215.922 240.774C212.189 241.097 208.365 240.76 204.62 240.769C187.705 240.811 191.181 238.723 191.194 223.561C187.935 222.501 184.678 221.446 181.392 220.472C174.372 228.325 170.366 234.328 162.38 227.069C147.646 213.676 148.671 215.289 162.261 201.849C160.47 198.334 159.108 194.514 158.145 190.696C154.948 190.283 145.029 190.312 142.848 188.286C139.975 185.618 140.727 170.999 141.2 167.72C142.215 160.682 152.181 162.458 158.145 162.148C159.073 158.542 160.354 155.423 162.261 152.222C160.009 150.068 151.694 142.044 151.564 139.26C151.341 134.516 165.401 122.362 168.823 122.185C171.149 122.065 180.182 131.503 182.353 133.538C185.186 132.151 188.073 131.08 191.194 130.592ZM201.24 122.227C201.076 126.819 201.987 132.831 200.439 137.155C198.79 138.624 182.474 144.101 180.248 144.236C176.042 142.724 172.224 136.999 168.608 134.197C166.467 135.77 165.174 137.116 163.932 139.507L164.174 139.819C174.908 153.47 175.404 144.8 168.896 160.697C164.27 171.996 169.078 173.445 151.068 172.176L151.068 180.461C169.261 180.037 163.971 179.796 168.977 192.85C175.583 210.077 175.797 199.056 163.932 214.548L168.608 219.21C171.669 215.692 175.155 210.862 179.669 209.36L179.798 209.316C183.428 210.153 186.779 211.969 190.367 212.995C203.858 216.849 201.381 213.603 201.24 230.807C202.64 230.817 207.549 231.299 208.477 230.807C209.436 212.913 205.166 217.534 219.942 212.748C235.899 207.58 228.04 209.293 240.889 219.21L246.012 214.548L245.752 214.211C235.116 200.581 234.047 208.277 240.491 192.81C246.486 178.42 238.068 179.815 258.591 179.7L258.591 172.176C239.701 171.028 246.774 175.467 239.598 159.97C233.47 146.737 235.366 152.001 246.012 139.507C244.212 137.797 242.513 136.079 240.889 134.197C238.405 136.372 230.85 144.563 227.931 144.323C226.548 144.209 210.696 138.533 209.491 137.65C207.515 134.169 208.505 126.35 208.477 122.227C206.065 122.208 203.651 122.164 201.24 122.227Z"/><path d="M206.37 198.949C193.912 200.11 182.883 190.923 181.774 178.459C180.664 165.996 189.896 155.005 202.363 153.946C214.759 152.893 225.673 162.061 226.777 174.452C227.88 186.844 218.757 197.795 206.37 198.949ZM202.466 163.943C195.544 164.886 190.694 171.259 191.631 178.182C192.567 185.106 198.936 189.961 205.861 189.03C212.793 188.097 217.655 181.719 216.717 174.788C215.779 167.856 209.397 163 202.466 163.943Z"/><path d="M345.435 331.671C343.103 331.878 340.771 330.923 339.989 328.531C339.176 326.046 339.235 287.211 339.503 282.216C339.694 278.666 340.814 277.238 344.376 276.298C348.68 276.587 349.281 279.746 349.445 283.299C349.65 287.764 349.899 326.707 349.292 328.34C348.642 330.085 347.036 330.957 345.435 331.671Z"/><path d="M379.693 331.671C377.649 331.311 375.774 330.477 375.004 328.363C374.247 326.282 374.396 287.11 374.629 282.396C374.818 278.58 375.844 277.211 379.693 276.298C386.064 276.679 384.664 284.344 384.669 288.684L384.682 318.54C384.695 323.601 386.232 330.319 379.693 331.671Z"/><path d="M310.917 331.671C302.52 331.723 304.756 322.649 304.753 316.865L304.767 288.411C304.772 283.31 303.848 279.396 308.623 276.298C312.366 276.647 314.341 278.898 314.506 282.442C314.701 286.651 314.851 327.204 314.376 328.625C313.835 330.241 312.364 331.017 310.917 331.671Z"/></svg>