<?xml version="1.0" encoding="utf-8" ?><svg xmlns="http://www.w3.org/2000/svg" xmlns:xlink="http://www.w3.org/1999/xlink" width="512" height="512" viewBox="0 0 512 512"><path d="M197.875 380.438L169.395 380.45C152.854 380.451 137.72 380.765 122.26 373.741C106.965 366.792 95.9277 354.03 94.1999 337.121C93.1329 326.679 93.3167 329.6 87.7004 320.5C83.5144 313.718 73.9129 300.573 70.9763 294.429C62.9136 277.56 74.037 266.983 84.8673 256.483L104.07 237.544C117.735 224.221 119.216 225.076 125.614 207.248C139.777 167.783 166.915 161.61 206.355 159.31C223.945 158.284 225.707 156.352 242.092 151.464C259.162 146.373 297.693 133.712 314.772 132.604C330.751 131.494 335.026 138.806 342.583 150.57C355.67 170.939 361.737 185.239 382.135 200.037C389.196 205.159 396.325 210.186 403.544 215.081C418.088 224.943 420.765 225.635 423.07 244.36C424.304 254.381 424.946 267.252 427.013 276.817C430.136 291.27 443.702 303.382 443.743 317.693C443.783 331.751 430.63 339.685 421.211 347.822C389.383 375.319 369.491 380.461 329.858 380.444L197.875 380.438ZM315.925 143.603C309.62 144.135 303.576 145.916 297.494 147.558C279.623 152.384 261.796 157.181 244.043 162.437C224.985 168.081 225.84 169.489 205.086 170.447C172.366 171.957 148.876 177.121 136.778 209.575C129.199 229.908 128.044 229.675 112.54 244.857L92.5393 264.647C78.1335 278.896 75.0033 280.881 86.5588 297.789L95.2772 310.675C95.2194 266.466 129.447 268.06 141.083 238.88C152.55 210.124 154.422 212.13 184.526 212.982C209.959 214.144 237.003 198.098 262.549 199.036C298.345 200.351 324.332 236.475 351.407 254.671C358.219 252.8 364.774 251.566 371.845 251.312C383.087 250.908 401.208 255.395 408.027 243.592C414.024 233.212 404.474 229.348 397.393 224.434C386.875 217.134 372.546 208.177 363.21 199.518C356.571 193.361 351.912 185.379 346.959 177.89L334.287 158.731C326.232 161.494 317.513 165.961 310.647 171.016C307.446 173.373 298.608 183.62 295.245 174.13C291.896 164.679 320.047 153.362 327.915 148.841C324.717 144.56 320.999 143.308 315.925 143.603ZM257.939 210.348C233.041 212.802 209.768 225.389 184.345 224.09C160.574 222.876 159.99 220.426 151.934 242.004C148.048 252.411 140.257 260.902 132.157 268.276C112.664 286.022 107.899 286.283 106.13 312.922C105.611 320.731 104.563 329.156 105.373 336.947C107.285 355.353 125.177 365.669 141.874 368.155C150.314 369.412 159.051 368.983 167.56 368.983L329.525 368.97C322.808 334.97 280.416 326.197 255.12 348.3C252.122 350.919 248.751 355.983 244.28 353.091C237.301 348.576 244.591 342.407 248.261 339.284C281.685 310.84 331.888 324.987 341.249 368.97C355.184 368.992 368.357 367.045 381.062 361.134C393.791 355.292 418.309 337.518 428.265 326.455C438.246 315.364 426.247 303.564 421.189 293.342C415.217 281.273 414.822 269.414 413.101 256.433C398.866 264.6 393.118 262.678 376.951 262.386C352.299 261.939 342.631 272.28 323.945 286.855C299.811 305.679 269.39 310.757 239.759 302.737C215.737 296.235 193.638 283.485 169.238 278.336C165.698 277.589 160.896 277.508 158.872 273.966C157.341 271.285 158.464 268.004 161.206 266.605C166.722 263.79 195.352 274.518 202.156 277.112C234.415 289.408 265.166 303.971 299.687 288.492C312.61 282.698 328.018 269.142 339.986 260.35C335.413 256.154 330.427 252.439 325.763 248.343C308.519 233.196 282.606 208.3 257.939 210.348Z"/><path d="M257.939 250.779C253.767 250.692 249.435 246.847 252.036 242.47C254.085 239.023 264.217 238.313 269.179 235.114C272.689 232.851 275.615 228.786 279.714 227.785C282.495 227.944 285.241 229.961 285.808 232.784C287.456 240.992 264.081 249.833 257.939 250.779Z"/><path d="M274.061 266.994C267.558 266.888 263.365 256.493 279.714 253.574C286.859 254.01 288.34 263.85 274.061 266.994Z"/><path d="M364.643 310.675C360.429 310.851 356.507 307.144 358.662 302.76C360.389 299.248 368.566 296.145 372.193 294.778C376.528 294.458 380.063 298.99 377.803 303.062C376.129 306.076 368.026 309.645 364.643 310.675Z"/><path d="M367.912 334.973C364.003 334.869 359.085 330.786 361.936 326.689C365.147 322.075 376.171 324.255 383.188 319.004C386.69 316.384 387.882 311.639 392.452 310.675C400.612 311.482 399.289 318.299 395.338 323.11C388.326 331.648 378.464 333.972 367.912 334.973Z"/></svg>