<?xml version="1.0" encoding="utf-8" ?><svg xmlns="http://www.w3.org/2000/svg" xmlns:xlink="http://www.w3.org/1999/xlink" width="512" height="512" viewBox="0 0 512 512"><path d="M130.76 272.671C123.092 288.674 115.692 285.523 102.805 277.635L80.0697 263.556C70.9318 257.955 52.6714 251.331 58.5971 237.097C59.7293 234.378 61.6126 231.979 63.0788 229.432L117.123 136.368C119.84 131.751 121.1 128.264 126.725 126.807C134.182 126.157 161.636 146.412 168.996 151.186C178.49 157.344 194.918 162.732 186.114 175.974C190.399 177.27 194.655 179.193 198.835 180.811C201.036 179.46 203.092 177.833 205.278 176.442C220.437 166.8 236.524 168.462 253.699 168.47C281.464 168.481 288.937 165.784 312.17 182.278C317.079 180.952 321.995 179.691 326.934 178.483C319.131 164.229 323.813 162.723 336.748 155.216L369.982 135.683C376.46 131.848 385.43 124.476 392.171 132.109C397.716 138.388 407.472 157.709 411.892 165.489C414.402 169.905 422.242 180.076 421.784 185.138C421.464 188.678 416.007 190.794 413.529 188.086C411.092 185.425 408.7 180.368 406.83 177.163L391.09 149.977C388.972 146.338 387.167 142.44 384.764 138.985C380.782 141.103 376.91 143.515 373.016 145.795L352.466 157.94C346.617 161.453 339.618 165.963 333.378 168.477C335.676 174.689 339.781 180.482 343.063 186.232L385.412 260.834C387.896 265.273 390.951 272.286 393.951 276.014C396.64 275.016 399.089 273.256 401.538 271.77L433.206 252.256C435.346 250.936 443.575 246.719 444.402 244.306C445.532 241.011 421.95 209.049 423.329 203.364C424.882 196.966 430.943 199.79 433.751 204.471C438.051 211.998 442.486 219.441 446.88 226.913C457.456 244.895 458.682 248.806 440.008 260.123L409.665 278.627C397.564 286.018 390.029 291.421 381.762 276.014C378.77 278.177 376.329 281.126 373.797 283.793L362.901 295.305C375.154 314.083 361.198 332.413 338.745 331.672C338.871 349.522 323.048 358.35 307.152 351.225C303.198 365.878 292.039 372.07 277.605 367.761C273.091 386.178 254.812 389.261 242.273 375.583C228.562 386.908 210.946 375.311 208.031 359.308C193.869 358.241 184.544 350.443 181.839 336.155C177.157 334.686 172.689 333.204 168.903 329.958C160.027 322.35 156.164 310.729 164.448 301.359C154.557 291.902 141.535 281.204 130.76 272.671ZM128.31 136.864C122.719 147.075 116.695 157.065 110.852 167.135L72.3418 233.568C70.2399 237.117 65.1659 242.276 69.1918 245.218C78.7713 252.217 93.7532 260.169 104.221 266.487C107.737 268.609 112.988 273.069 117.067 273.55C120.801 272.474 122.816 265.91 124.66 262.649L161.27 199.366C167.053 189.444 173.109 179.605 178.474 169.45C162.033 158.2 144.517 148.405 128.31 136.864ZM228.821 178.483C221.215 179.978 214.325 182.391 207.902 186.852C205.483 188.531 203.357 190.856 200.536 191.831C194.512 190.282 187.5 187.332 181.839 184.714C179.196 188.282 177.085 192.269 174.87 196.11L142.496 251.962C140.281 255.835 137.877 259.625 135.741 263.538C148.034 273.603 159.947 284.142 172.236 294.213C186.617 278.946 205.118 290.501 208.031 308.291C222.123 308.576 230.237 316.937 233.395 330.148C253.093 331.32 264.283 353.133 249.407 368.833C256.724 376.288 267.706 373.23 267.328 364.297C267.139 359.832 260.362 354.711 264.173 350.504C271.965 341.901 280.619 366.921 292.788 355.851C296.544 352.435 297.508 348.194 295.858 343.496C290.423 338.87 284.439 334.741 278.729 330.453C274.905 327.581 265.399 322.347 270.814 316.503C274.894 312.1 281.186 319.079 284.367 321.527C289.757 325.675 295.115 329.878 300.613 333.882C305.687 337.389 312.468 344.417 318.868 343.348C327.134 341.967 331.502 331.425 325.84 324.851C322.759 321.273 318.204 318.367 314.457 315.476C310.9 312.731 288.638 296.802 286.889 294.356C284.486 290.996 286.323 286.861 290.177 285.846C294.212 284.782 304.75 294.954 307.787 297.324C314.001 302.174 332.501 317.462 338.587 320.411C347.729 324.841 358.491 315.668 356.358 305.841C354.984 299.511 349.007 295.899 344.228 292.235L262.416 230.818C258.19 227.657 254.109 224.113 249.603 221.367L249.407 221.25C237.738 231.086 224.65 250.717 208.953 249.335C196.543 248.242 187.161 237.4 188.317 224.892C189.262 214.675 197.844 209.261 204.696 202.67L221.758 186.005C223.57 184.263 228.015 180.647 229.146 178.665C229.041 178.598 228.944 178.495 228.821 178.483ZM243.712 178.483C240.395 181.499 237.287 184.78 234.107 187.941L207.516 214.02C203.875 217.539 198.896 221.17 198.515 226.671C197.768 237.45 210.84 244.044 220.463 234.808L234.433 221.36C247.571 208.678 249.05 207.926 263.553 218.884L276.034 228.248C293.618 241.303 310.931 254.772 328.647 267.646L344.503 279.43C348.317 282.261 352.198 285.026 355.75 288.187C362.6 280.692 369.65 273.375 376.584 265.957L345.575 211.106C341.027 203.24 336.678 195.174 331.817 187.498C314.684 192.565 314.594 196.775 300.509 186.455C289.642 178.495 279.627 178.471 266.902 178.473L243.712 178.483ZM184.639 297.273C181.673 299.013 170.72 308.554 169.93 311.498C168.214 317.9 178.327 324.823 183.469 325.645C187.734 324.938 195.553 316.565 198.068 313.243C198.105 305.722 193.426 296.504 184.639 297.273ZM210.005 318.577C205.894 319.39 195.305 329.739 193.12 332.892C188.928 338.942 198.522 347.821 205.473 348.746C209.603 348.259 220.19 337.761 223.46 333.882C222.562 326.558 218.011 318.998 210.005 318.577ZM232.116 340.532C229.087 342.992 220.977 350.156 218.918 353.043C214.078 359.833 224.929 371.448 232.116 369.886C235.306 368.483 244.58 359.952 245.722 356.906C248.68 349.016 240.363 341.01 232.116 340.532Z"/></svg>