<svg width="1024" height="1024" viewBox="0 0 1024 1024" fill="none" xmlns="http://www.w3.org/2000/svg">
<path d="M737.256 234.918C738.376 229.546 739.734 226.024 744.992 223.428C754.228 222.858 780.008 221.052 774.67 237.752C773.52 241.35 770.502 242.956 767.312 244.462C756.444 245.182 741.32 247.746 737.256 234.918Z" fill="black"/>
<path d="M707.66 259.4C688.758 261.634 688.916 236.73 718.942 231.562C726.02 229.7 733.766 235.318 731.208 243.226C728.962 250.168 713.984 255.976 707.66 259.4Z" fill="black"/>
<path d="M783.914 234.918C785.942 233.442 787.96 232.52 790.252 231.562C804.16 230.35 831.024 254.816 808.372 262.062C799.214 262.178 776.456 250.818 783.914 234.918Z" fill="black"/>
<path d="M748.844 333.348C752.254 331.036 755.456 328.094 758.67 325.498L780.718 307.654C790.304 300.006 861.33 242.552 870.122 240.652C893.172 242.392 875.416 260.494 866.66 267.376C836.328 291.22 806.1 315.3 775.368 338.618C751.654 356.612 750.79 367.968 729.362 342.996C722.15 334.59 715.138 325.984 707.66 317.814C687.052 295.096 705.538 288.214 713.846 294.158C718.888 297.766 723.352 304 727.42 308.67L748.844 333.348Z" fill="black"/>
<path d="M677.71 293.398C655.574 299.444 667.02 263.484 681.498 259.4C705.244 254.69 689.396 288.436 677.71 293.398Z" fill="black"/>
<path d="M488.018 405.518C512.642 383.252 522.382 350.422 524.074 318.278C525.096 298.838 523.844 279.67 547.956 275.124C574.45 272.402 594.888 291.808 602.75 315.776C613.194 347.626 607.518 385.336 595.286 415.976C585.002 441.742 564.356 460.508 607.92 460.476L812.614 460.412C826.26 460.394 841.038 458.816 853.65 465.138C892.806 484.772 885.802 539.416 838.374 553.82C853.248 587.572 833.276 610.038 801.256 619.378C822.526 646.538 804.118 680.982 772.234 689.29C788.446 717.594 779.92 747.784 748.576 760.848C740.448 764.234 731.1 765.45 722.486 767.178L674.942 776.28C653.464 780.43 632.126 785.33 610.776 790.082C533.128 807.36 511.018 805.378 436.668 773.448L371.348 744.8C345.854 733.674 330.34 723.22 301.096 724.984C303.936 768.518 272.036 764.71 242.66 764.684L175.491 764.686C147.142 763.16 145.41 739.13 145.563 717.018C145.612 709.852 142.822 690.136 148.461 684.91C153.108 680.604 162.367 682.122 165.228 687.802C170.216 697.704 161.934 733.074 169.731 740.946C175.748 747.02 222.526 744.01 232.542 744.034C288.452 744.162 280.448 748.942 280.444 697.758L280.452 532.65C280.464 516.606 281.104 500.264 280.262 484.246C279.064 461.48 242.404 469.49 224.236 469.522C163.225 469.624 166.442 458.894 166.461 514.972L166.556 637.6C166.605 643.32 168.198 653.73 163.942 658.36C160.341 662.276 153.428 662.85 149.451 659.196C142.539 652.848 145.542 620.018 145.542 610.59L145.533 499.642C145.484 485.24 143.803 471.422 154.538 459.966C170.022 443.44 212.488 449.172 234.196 449.112C263.47 449.03 300.228 442.942 301.096 484.672H357.082C379.124 430.48 431.124 405.304 488.018 405.518ZM551.624 295.546C539.438 300.552 545.264 319.13 543.898 332.412C540.904 361.504 530.456 386.794 512.568 409.914C495.056 432.55 494.124 424.462 468.862 426.706C430.778 430.088 394.616 453.35 378.152 488.348C367.152 511.732 368.16 505.544 340.736 505.44L301.096 505.412V704.082C334.284 703.596 340.974 708.672 371.156 721.65L431.564 747.64C516.482 784.964 524.644 788.292 613.5 767.736C645.754 760.274 678.054 753.366 710.658 747.62C729.87 744.232 760.062 741.162 759.95 714.91C759.838 688.338 727.098 691.36 709.8 691.39L666.804 691.49C658.014 691.52 641.478 694.082 641.388 680.744C641.352 675.272 645.034 671.122 650.374 670.336L725.384 670.352C737.902 670.35 755.544 671.61 767.354 669.142C787.708 664.888 796.894 641.062 781.2 626.396C771.642 617.464 757.27 619.346 745.254 619.352L701.988 619.398C695.272 619.41 688.154 620.006 681.498 619.378C678.158 616.04 676.388 613.182 675.316 608.52C679.664 592.886 701.668 598.242 715.924 598.254L770.494 598.292C787.712 598.298 814.858 602.134 821.084 580.378C830.7 546.778 792.588 549.55 773.872 549.558L722.25 549.566C715.574 549.572 707.626 550.57 701.162 548.918C692.234 546.636 691.546 534.022 699.704 529.964C703.328 528.162 790.02 528.824 800.586 529.388C819.594 530.406 843.962 541.016 855.08 517.838C862.91 501.518 851.028 481.99 833.352 480.904C826.958 480.51 820.292 480.968 813.87 480.97L635.514 480.98C622.72 480.978 593.292 482.506 582.34 478.858C564.676 472.976 556.27 452.534 563.062 435.582C577.856 398.65 599.944 361.724 581.934 318.74C577.018 307.008 565.484 294.26 551.624 295.546Z" fill="black"/>
<path d="M670.54 339.2C653.422 341.602 651.8 307.244 664.452 300.598C683.032 299.336 677.802 320.914 677.71 333.348C675.64 336.4 673.914 337.708 670.54 339.2Z" fill="black"/>
<path d="M842.378 341.118C824.87 339.65 827.286 307.692 842.378 305.136C858.638 306.954 856.17 337.064 842.378 341.118Z" fill="black"/>
<path d="M686.946 384.692C672.808 384.732 653.772 351.244 675.316 347.522C683.168 347.256 706.608 377.134 686.946 384.692Z" fill="black"/>
<path d="M827.874 382.554C805.158 384.722 819.948 352.274 831.648 347.522C839.284 347.442 842.616 350.282 844.758 357.612C842.584 366.712 836.38 378.244 827.874 382.554Z" fill="black"/>
<path d="M792.07 412.038C768.226 405.928 790.22 386.41 804.874 382.554C825.234 382.788 814.428 405.954 792.07 412.038Z" fill="black"/>
<path d="M723.29 412.038C708.546 411.196 682.536 390.348 706.096 382.554C711.382 383.77 718.938 388.754 723.866 391.452C734.22 397.122 735.574 408.87 723.29 412.038Z" fill="black"/>
<path d="M753.086 419.356C744.292 419.186 734.154 410.306 741.504 402.442C746.124 397.498 755.246 399.026 761.384 398.976C776.746 396.962 787.586 419.452 753.086 419.356Z" fill="black"/>
</svg>
