<?xml version="1.0" encoding="utf-8" ?><svg xmlns="http://www.w3.org/2000/svg" xmlns:xlink="http://www.w3.org/1999/xlink" width="512" height="512" viewBox="0 0 512 512"><path d="M365.31 186.804C357.75 167.135 369.797 145.24 391.384 144.249C408.281 142.277 422.669 156.839 423.37 173.155C424.567 201.02 392.657 215.228 370.875 194.926C363.013 200.546 354.318 205.637 347.036 211.973C358.619 252.064 349.221 280.342 321.263 308.54C324.16 312.083 327.411 315.145 329.896 319.051C334.883 326.886 336.208 334.756 343.821 341.073C367.036 360.336 399.266 333.164 384.862 308.573C383.472 306.199 379.446 302.388 379.253 299.87C378.822 294.256 384.65 293.27 388.084 296.504C401.912 309.53 400.477 333.468 387.375 346.675C370.896 363.287 342.855 359.135 330.139 339.959C323.16 329.435 323.893 324.972 313.171 314.379C307.445 316.934 302.25 320.518 296.397 322.93C270.677 333.527 242.241 336.088 214.686 336.074C183.317 335.797 151.037 329.858 124.479 312.431C120.448 317.02 107.751 330.243 103.324 333.336C100.009 335.653 95.6547 333.67 95.7643 329.351C95.8524 325.882 113.093 310.163 116.728 306.591C90.2988 283.962 82.394 243.998 93.0409 211.698C117.157 138.536 225.182 134.043 285.521 154.284C311.89 163.13 331.125 176.846 343.76 202.195C350.713 196.762 358.32 192.19 365.31 186.804ZM390.015 153.972C378.784 155.667 371.033 166.116 372.669 177.356C374.306 188.595 384.715 196.401 395.963 194.823C407.294 193.233 415.17 182.73 413.521 171.408C411.873 160.085 401.329 152.264 390.015 153.972ZM212.653 153.968C204.642 173.455 198.598 185.398 182.22 200.442C185.075 201.606 201.645 208.439 203.237 207.995L204.258 206.916C216.233 194.071 231.628 171.363 234.935 153.968C227.578 154.48 220.049 153.878 212.653 153.968ZM199.23 155.435C176.387 154.181 137.085 168.51 121.378 183.79C125.649 184.711 129.884 185.724 134.118 186.804C146.996 189.863 159.093 193.749 171.643 196.937C182.806 187.001 193.393 174.835 199.18 160.926C200.258 158.336 203.444 154.181 199.23 155.435ZM245.177 155.435C237.513 178.222 228.909 194.116 212.653 211.973C218.396 214.684 224.428 216.777 230.259 219.29L231.654 217.957C244.779 205.219 254.152 190.171 261.135 173.329C263.122 168.537 264.194 163.444 266.442 158.743C259.38 157.506 252.309 156.195 245.177 155.435ZM275.455 161.34C270.315 179.8 261.706 196.852 250.118 212.075C246.963 216.22 242.794 219.831 239.874 224.012C243.295 225.475 254.769 231.204 257.402 231.703L257.911 231.428C275.753 214.578 289.616 192.867 294.091 168.541C288.368 165.281 281.777 163.122 275.455 161.34ZM303.349 173.047C296.778 200.094 284.942 217.183 266.442 236.613C268.461 237.887 282.68 246.902 283.924 245.648C302.143 227.375 312.688 211.116 321.263 186.804C316.392 181.254 310.028 176.258 303.349 173.047ZM114.033 192.409C109.234 199.065 104.782 206.573 102.769 214.591C110.057 214.169 117.551 215.653 124.694 216.973C179.403 227.08 253.425 261.273 299.405 292.115C304.074 295.248 308.444 298.897 313.171 301.926L315.139 300.424C319.578 296.712 324.504 290.096 328.482 287.472C270.088 243.196 193.299 209.018 121.946 194.034C119.333 193.485 116.669 192.805 114.033 192.409ZM328.482 194.926C321.792 216.199 307.87 235.483 292.151 251.007C296.527 254.021 301.304 256.505 305.883 259.197C307.145 259.963 308.421 260.513 309.783 261.069C319.182 255.208 333.37 230.951 339.355 219.29C337.859 214.046 332.62 198.558 328.482 194.926ZM99.8084 224.012C94.8506 251.802 101.541 275.779 120.192 296.353C125.406 290.237 133.384 288.91 141.003 288.079L141.003 270.953C137.173 270.962 124.948 271.911 122.279 269.443C120.508 267.806 120.63 264.023 122.369 262.408C125.458 259.539 138.477 261.114 142.58 261.104C146.917 261.093 183.443 257.527 169.489 270.953C163.228 271.099 156.958 270.792 150.698 270.953L150.698 287.472L178.395 287.483C182.745 287.481 192.3 285.779 195.694 289.242C199.198 292.818 195.143 296.775 191.375 297.223C182.901 298.23 131.236 294.539 127.918 302.362C129.081 307.405 159.424 318.238 164.282 319.6C203.682 329.686 272.203 329.899 304.47 307.703C254.946 272.999 199.126 246.419 140.659 230.809C127.511 227.298 113.497 223.868 99.8084 224.012ZM341.751 236.613C334.453 243.507 327.208 258.174 317.97 267.492C320.358 269.04 322.633 270.673 324.913 272.375C327.58 274.479 330.3 276.535 332.804 278.833C341.756 262.588 340.76 253.508 341.954 236.874L341.751 236.613Z"/></svg>