<?xml version="1.0" encoding="utf-8" ?><svg xmlns="http://www.w3.org/2000/svg" xmlns:xlink="http://www.w3.org/1999/xlink" width="512" height="512" viewBox="0 0 512 512"><path d="M225.323 162.198C219.423 160.826 213.808 157.076 209.516 152.892C185.647 129.626 202.684 87.9003 235.58 87.7554C254.254 86.7998 269.617 100.588 273.413 118.34C274.059 121.359 274.276 124.533 275.302 127.455C277.008 132.312 280.443 135.908 280.694 141.348C281.242 153.226 267.764 162.988 256.349 163.527C255.889 165.258 255.611 167.051 255.287 168.813C266.404 176.858 270.699 183.165 279.144 192.607C282.785 193.712 287.102 193.876 290.883 194.459L357.53 204.557C371.18 206.762 388.207 214.224 397.084 201.355C397.473 187.684 407.701 191.998 407.721 199.516C407.761 213.961 396.747 228.176 382.631 231.454C375.285 233.16 362.302 232.385 354.364 232.504L298.11 233.312C306.247 264.438 304.076 276.406 298.11 305.528C304.611 305.946 311.309 305.007 317.8 304.542L356.573 301.702C373.089 300.578 393.113 298.494 397.422 320.974C398.632 327.283 397.436 336.793 396.983 343.262C395.897 358.753 393.644 377.627 393.821 392.995C398.845 394.678 417.575 401.93 421.132 404.324C429.543 409.982 425.173 422.75 415.866 424.151C410.773 424.918 383.846 424.788 379.365 423.765C366.892 420.916 364.214 410.714 362.712 399.367L360.914 386.17C359.422 375.016 357.971 360.229 355.667 349.522L289.548 368.998C284.37 370.508 279.202 372.089 273.997 373.503C260.856 377.072 263.761 376.79 252.586 383.467C221.774 401.877 184.623 407.93 149.214 410.164C128.706 411.458 115.462 420.331 96.4537 423.429C91.758 424.195 87.9991 421.503 85.8828 417.315C80.6332 406.926 95.6033 401.329 101.391 395.809C112.636 385.083 118.526 372.973 135.971 379.948C140.709 379.202 145.569 377.217 150.111 375.694C174.945 367.37 190.933 357.735 212.411 344.499C208.166 323.922 211.307 321.797 218.258 302.626C228.572 274.182 213.492 249.159 209.206 222.629C206.629 206.678 208.395 187.479 217.807 173.953C221.296 168.941 224.04 168.768 225.323 162.198ZM234.402 98.3446C204.416 101.563 200.092 143.199 227.717 151.715C228.048 150.428 228.419 149.136 228.701 147.838C227.49 146.657 226.384 145.467 225.323 144.15C221.468 140.378 218.401 135.433 218.338 129.898C218.158 114.161 244.993 122.728 253.279 104.302C247.747 100.144 241.406 97.7532 234.402 98.3446ZM260.622 113.434C249.904 126.064 241.208 125.273 228.701 130.913L228.847 131.232C231.32 136.466 237.6 140.951 238.443 146.809C238.942 150.278 235.989 166.223 234.75 169.806C232.883 175.211 225.213 178.635 221.568 190.498C213.319 217.346 224.744 234.64 229.626 259.853C231.968 271.946 231.649 279.448 231.985 291.122C247.697 301.881 266.562 306.27 285.335 307.219C286.267 305.067 287.226 302.923 288.118 300.754C294.912 278.171 294.064 255.747 287.074 233.312L266.452 233.328C261.404 233.346 256.087 233.959 251.137 232.771C225.238 226.554 227.464 186.149 259.045 186.544L260.622 186.574C257.403 184.255 245.065 175.617 244.586 172.743C244.149 170.126 245.846 158.759 246.591 155.774C249.245 145.146 261.038 161.513 270.311 142.343C268.962 137.1 265.809 132.546 264.504 127.301C263.651 123.874 262.924 116 260.622 113.434ZM254.287 197.28C243.054 200.021 239.078 214.995 250.274 221.016C255.344 223.743 266.074 222.533 272.044 222.574L282.984 222.574C279.77 214.801 275.776 206.324 270.311 199.849C265.595 198.449 259.224 196.861 254.287 197.28ZM286.152 204.691C289.172 210.529 292.194 216.356 294.377 222.574C315.045 222.412 335.735 222.332 356.399 221.897C363.623 221.745 375.138 223.06 381.821 220.682C382.714 220.285 383.635 219.915 384.485 219.432C352.647 214.934 317.668 210.441 286.152 204.691ZM229.517 302.833C224.077 317.347 217.003 328.769 224.156 344.535C230.636 358.816 246.021 367.026 261.412 365.26C274.525 363.755 299.788 354.707 313.535 350.688L354.26 338.814C367.372 334.885 365.506 342.779 367.072 353.719L371.082 382.165C371.907 388.142 373.518 404.053 375.486 408.268C378.138 413.944 383.73 413.776 389.073 413.748L406.377 413.766C409.3 413.77 412.3 413.919 415.214 413.748C408.175 409.914 400.127 407.365 392.726 404.266C379.525 398.739 382.587 399.093 383.551 384.386L386.022 345.376C386.417 338.81 388.379 327.743 386.404 321.486C381.974 307.458 365.393 311.832 354.598 312.584L308.452 315.83C281.892 317.823 267.469 319.844 241.854 308.579C237.732 306.766 233.742 304.33 229.517 302.833ZM216.862 354.21C205.075 362.447 148.324 393.416 134.495 390.719C130.674 389.973 127.23 387.386 123.333 389.719C116.337 393.909 107.141 406.1 97.4488 412.447L117.809 405.975C131.273 401.622 132.835 400.308 147.179 399.485C180.533 397.572 216.242 392.047 245.281 374.835C235.478 371.918 227.519 366.716 220.841 358.958C219.74 357.679 218.263 354.964 216.862 354.21Z"/></svg>